<svg width="28" height="28" viewBox="0 0 27 25" fill="none" xmlns="http://www.w3.org/2000/svg">
<path d="M13.9997 24.5L12.308 22.9833C10.3441 21.2139 8.72051 19.6875 7.43717 18.4042C6.15384 17.1208 5.13301 15.9688 4.37467 14.9479C3.61634 13.9271 3.08648 12.9889 2.78509 12.1333C2.4837 11.2778 2.33301 10.4028 2.33301 9.50834C2.33301 7.68056 2.94551 6.15417 4.17051 4.92917C5.39551 3.70417 6.9219 3.09167 8.74967 3.09167C9.76079 3.09167 10.7233 3.30556 11.6372 3.73334C12.5511 4.16112 13.3386 4.7639 13.9997 5.54167C14.6608 4.7639 15.4483 4.16112 16.3622 3.73334C17.2761 3.30556 18.2386 3.09167 19.2497 3.09167C21.0775 3.09167 22.6038 3.70417 23.8288 4.92917C25.0538 6.15417 25.6663 7.68056 25.6663 9.50834C25.6663 10.4028 25.5156 11.2778 25.2143 12.1333C24.9129 12.9889 24.383 13.9271 23.6247 14.9479C22.8663 15.9688 21.8455 17.1208 20.5622 18.4042C19.2788 19.6875 17.6552 21.2139 15.6913 22.9833L13.9997 24.5ZM13.9997 21.35C15.8663 19.6778 17.4025 18.2438 18.608 17.0479C19.8136 15.8521 20.7663 14.8118 21.4663 13.9271C22.1663 13.0424 22.6525 12.2549 22.9247 11.5646C23.1969 10.8743 23.333 10.1889 23.333 9.50834C23.333 8.34167 22.9441 7.36945 22.1663 6.59167C21.3886 5.8139 20.4163 5.42501 19.2497 5.42501C18.3358 5.42501 17.49 5.68265 16.7122 6.19792C15.9344 6.7132 15.3997 7.36945 15.108 8.16667H12.8913C12.5997 7.36945 12.065 6.7132 11.2872 6.19792C10.5094 5.68265 9.66356 5.42501 8.74967 5.42501C7.58301 5.42501 6.61079 5.8139 5.83301 6.59167C5.05523 7.36945 4.66634 8.34167 4.66634 9.50834C4.66634 10.1889 4.80245 10.8743 5.07467 11.5646C5.3469 12.2549 5.83301 13.0424 6.53301 13.9271C7.23301 14.8118 8.18579 15.8521 9.39134 17.0479C10.5969 18.2438 12.133 19.6778 13.9997 21.35Z" fill="#E6766F"/>
</svg>
