<svg width="21" height="20" viewBox="0 0 21 20" fill="none" xmlns="http://www.w3.org/2000/svg">
<g clip-path="url(#clip0_483_1125)">
<path d="M10.333 0C7.61926 0 7.27801 0.0125 6.21176 0.06C5.14551 0.11 4.41926 0.2775 3.78301 0.525C3.11563 0.776024 2.51112 1.16978 2.01176 1.67875C1.5031 2.17837 1.10939 2.7828 0.858008 3.45C0.610508 4.085 0.441758 4.8125 0.393008 5.875C0.345508 6.94375 0.333008 7.28375 0.333008 10.0013C0.333008 12.7163 0.345508 13.0563 0.393008 14.1225C0.443008 15.1875 0.610508 15.9137 0.858008 16.55C1.11426 17.2075 1.45551 17.765 2.01176 18.3212C2.56676 18.8775 3.12426 19.22 3.78176 19.475C4.41926 19.7225 5.14426 19.8912 6.20926 19.94C7.27676 19.9875 7.61676 20 10.333 20C13.0493 20 13.388 19.9875 14.4555 19.94C15.5193 19.89 16.248 19.7225 16.8843 19.475C17.5512 19.2239 18.1553 18.8301 18.6543 18.3212C19.2105 17.765 19.5518 17.2075 19.808 16.55C20.0543 15.9137 20.223 15.1875 20.273 14.1225C20.3205 13.0563 20.333 12.7163 20.333 10C20.333 7.28375 20.3205 6.94375 20.273 5.87625C20.223 4.8125 20.0543 4.085 19.808 3.45C19.5567 2.78278 19.1629 2.17834 18.6543 1.67875C18.155 1.16959 17.5505 0.775807 16.883 0.525C16.2455 0.2775 15.518 0.10875 14.4543 0.06C13.3868 0.0125 13.048 0 10.3305 0H10.3343H10.333ZM9.43676 1.8025H10.3343C13.0043 1.8025 13.3205 1.81125 14.3743 1.86C15.3493 1.90375 15.8793 2.0675 16.2318 2.20375C16.698 2.385 17.0318 2.6025 17.3818 2.9525C17.7318 3.3025 17.948 3.635 18.1293 4.1025C18.2668 4.45375 18.4293 4.98375 18.473 5.95875C18.5218 7.0125 18.5318 7.32875 18.5318 9.9975C18.5318 12.6663 18.5218 12.9837 18.473 14.0375C18.4293 15.0125 18.2655 15.5413 18.1293 15.8938C17.9689 16.3279 17.713 16.7205 17.3805 17.0425C17.0305 17.3925 16.698 17.6088 16.2305 17.79C15.8805 17.9275 15.3505 18.09 14.3743 18.135C13.3205 18.1825 13.0043 18.1938 10.3343 18.1938C7.66426 18.1938 7.34676 18.1825 6.29301 18.135C5.31801 18.09 4.78926 17.9275 4.43676 17.79C4.00238 17.6299 3.60942 17.3745 3.28676 17.0425C2.95395 16.72 2.69766 16.3271 2.53676 15.8925C2.40051 15.5412 2.23676 15.0113 2.19301 14.0363C2.14551 12.9825 2.13551 12.6663 2.13551 9.995C2.13551 7.325 2.14551 7.01 2.19301 5.95625C2.23801 4.98125 2.40051 4.45125 2.53801 4.09875C2.71926 3.6325 2.93676 3.29875 3.28676 2.94875C3.63676 2.59875 3.96926 2.3825 4.43676 2.20125C4.78926 2.06375 5.31801 1.90125 6.29301 1.85625C7.21551 1.81375 7.57301 1.80125 9.43676 1.8V1.8025ZM15.6718 3.4625C15.5142 3.4625 15.3581 3.49354 15.2125 3.55384C15.0669 3.61415 14.9347 3.70254 14.8232 3.81397C14.7118 3.9254 14.6234 4.05769 14.5631 4.20328C14.5028 4.34887 14.4718 4.50491 14.4718 4.6625C14.4718 4.82009 14.5028 4.97613 14.5631 5.12172C14.6234 5.26731 14.7118 5.3996 14.8232 5.51103C14.9347 5.62246 15.0669 5.71085 15.2125 5.77116C15.3581 5.83146 15.5142 5.8625 15.6718 5.8625C15.99 5.8625 16.2952 5.73607 16.5203 5.51103C16.7453 5.28598 16.8718 4.98076 16.8718 4.6625C16.8718 4.34424 16.7453 4.03902 16.5203 3.81397C16.2952 3.58893 15.99 3.4625 15.6718 3.4625ZM10.3343 4.865C9.6531 4.85437 8.97663 4.97936 8.34423 5.23268C7.71183 5.486 7.13615 5.86259 6.6507 6.34053C6.16524 6.81847 5.77971 7.38821 5.51656 8.01657C5.25341 8.64494 5.11788 9.31938 5.11788 10.0006C5.11788 10.6819 5.25341 11.3563 5.51656 11.9847C5.77971 12.613 6.16524 13.1828 6.6507 13.6607C7.13615 14.1387 7.71183 14.5153 8.34423 14.7686C8.97663 15.0219 9.6531 15.1469 10.3343 15.1363C11.6824 15.1152 12.9683 14.5649 13.9142 13.6041C14.8602 12.6432 15.3904 11.349 15.3904 10.0006C15.3904 8.65228 14.8602 7.35802 13.9142 6.39719C12.9683 5.43636 11.6824 4.88603 10.3343 4.865ZM10.3343 6.66625C11.2184 6.66625 12.0664 7.01748 12.6916 7.64268C13.3168 8.26788 13.668 9.11583 13.668 10C13.668 10.8842 13.3168 11.7321 12.6916 12.3573C12.0664 12.9825 11.2184 13.3337 10.3343 13.3337C9.45009 13.3337 8.60214 12.9825 7.97694 12.3573C7.35174 11.7321 7.00051 10.8842 7.00051 10C7.00051 9.11583 7.35174 8.26788 7.97694 7.64268C8.60214 7.01748 9.45009 6.66625 10.3343 6.66625Z" fill="#555555"/>
</g>
<defs>
<clipPath id="clip0_483_1125">
<rect width="20" height="20" fill="white" transform="translate(0.333008)"/>
</clipPath>
</defs>
</svg>
