<svg width="120" height="32" viewBox="0 0 120 32" fill="none" xmlns="http://www.w3.org/2000/svg">
<path d="M49.9397 6.49974C56.3717 9.64328 54.5609 15.0467 52.0982 12.8882C51.8664 10.7442 50.8958 8.44092 49.7804 6.58666L49.9397 6.49974ZM43.2905 6.18104L46.1443 7.19509C46.1008 7.35444 45.9705 7.47033 45.5938 7.48481C44.7246 9.58534 43.2905 12.2074 40.8278 13.8443L40.7119 13.7284C42.1606 11.5845 43.0008 8.354 43.2905 6.18104ZM46.5934 3.05198L49.3168 3.29825C49.2878 3.51555 49.143 3.66041 48.7808 3.71836V14.1196C48.7808 15.5682 48.4332 16.3505 45.956 16.5823C45.898 15.8579 45.7966 15.3654 45.4779 15.0322C45.1737 14.699 44.8116 14.4672 43.8699 14.2934V14.1196C43.8699 14.1196 45.8546 14.221 46.2602 14.221C46.5065 14.221 46.5934 14.1341 46.5934 13.9602V3.05198ZM57.5016 3.22582L57.5885 3.15339C61.862 2.99404 60.2395 6.35488 58.4432 5.18148C58.3418 4.45716 57.9217 3.68938 57.5016 3.22582ZM60.2251 5.73196L60.9784 4.74689C60.9784 4.74689 61.833 5.42775 62.3401 5.9058C62.2966 6.06515 62.1518 6.13758 61.9489 6.13758H56.4441L56.3282 5.73196H60.2251ZM59.805 9.46945L60.5293 8.52783C60.5293 8.52783 61.355 9.17972 61.8475 9.64328C61.8041 9.80263 61.6592 9.87507 61.4564 9.87507H56.9801L56.8642 9.46945H59.805ZM58.7909 14.6121H59.7905V11.7583H58.7909V14.6121ZM61.5868 11.9901V15.235C61.5723 15.3654 60.7176 15.742 60.1092 15.742H59.7905V15.0177H58.7909V15.9159C58.7909 16.0752 58.0231 16.4664 57.2843 16.4664H57.0236V10.6428L58.8489 11.3527H59.6601L60.4568 10.5125L62.0793 11.7293C62.0069 11.8307 61.833 11.9466 61.5868 11.9901ZM66.6136 10.2372V7.42687H64.0639V10.2372H66.6136ZM69.5108 13.0041L69.5688 14.4962C69.9744 14.6845 70.0613 14.8874 70.0613 15.2061C70.0613 15.8435 69.5253 16.1332 67.8304 16.1332H66.9612C65.7009 16.1332 65.5126 15.8 65.5126 14.7425V10.6428H65.2084C65.0635 13.2504 64.5855 15.293 60.7321 16.6112L60.5872 16.4084C63.0354 14.9598 63.3396 13.2359 63.3976 11.1644C63.1368 11.2513 62.8326 11.3092 62.5284 11.3092H62.2821V7.35444C62.1228 7.47033 61.9489 7.58622 61.7751 7.70211L61.8475 7.76006C61.8041 7.91941 61.6592 7.99184 61.4564 7.99184H56.9801L56.8642 7.58622H59.805L60.5293 6.6446C60.5293 6.6446 61.1087 7.09368 61.5723 7.51379C62.4994 6.1231 63.2093 4.12398 63.499 2.79123L65.8603 3.64593C65.8168 3.79079 65.7009 3.90668 65.3388 3.92117C64.8462 4.77586 64.0784 5.77542 63.1513 6.63012L64.1364 7.02125H66.4977L67.2799 6.21001L68.0912 6.81844C67.5986 5.54364 66.5266 4.095 65.6285 3.09544L65.7589 3.00852C71.1188 4.18192 70.0903 7.86146 68.2215 6.90536L68.8734 7.3979C68.8155 7.47033 68.6851 7.55725 68.4968 7.60071V10.6573C68.4823 10.7587 67.8159 11.005 67.251 11.0774V14.3514C67.251 14.5397 67.2944 14.5976 67.5262 14.5976H68.0477C68.2215 14.5976 68.3954 14.5976 68.4968 14.5831C68.6127 14.5831 68.7141 14.5542 68.7865 14.4383C68.9169 14.25 69.1342 13.6705 69.366 13.0041H69.5108ZM79.1877 8.96242H78.6807V11.034H79.1877V8.96242ZM78.4489 12.0335L80.4915 12.8013C80.4335 12.9607 80.3032 13.0621 79.9555 13.0621C79.8251 13.3083 79.6947 13.5691 79.5354 13.8009C82.2299 14.192 81.1579 16.5388 79.8251 15.6986C79.7527 15.235 79.5064 14.728 79.1877 14.3224C78.4779 15.2785 77.5073 16.1187 76.218 16.6112L76.1311 16.4519C77.1886 15.3509 77.7681 13.656 77.9998 12.2219C77.797 12.2798 77.5653 12.3233 77.3335 12.3233H77.1162V11.2658C76.8409 11.6279 76.3194 11.7293 75.8559 11.2658C75.8993 10.5414 75.711 9.7302 75.4358 9.07832V16.0752C75.4358 16.2346 74.6535 16.6112 73.9292 16.6112H73.5525V11.3961C73.1324 12.019 72.6399 12.613 72.0749 13.149L71.9011 12.9896C72.7123 11.3382 73.1324 9.07832 73.3497 6.93433H71.988L71.8721 6.52871H73.5525V2.87815L75.9718 3.12442C75.9428 3.32723 75.8269 3.47209 75.4358 3.53003V6.39834L76.0876 5.29737C76.0876 5.29737 76.9134 6.15207 77.348 6.70255C77.3045 6.8619 77.1596 6.93433 76.9568 6.93433H75.4358V8.65821C76.3484 9.03486 76.8699 9.51291 77.1162 9.97647V7.91941L78.7242 8.55681H79.0718L79.7817 7.83249L81.2158 8.90448C81.1579 8.97691 81.013 9.07832 80.8102 9.10729V11.6279C80.8102 11.7438 79.9845 12.0335 79.4775 12.0335H79.1877V11.4396H78.6807V11.8452C78.6807 11.8887 78.5938 11.9611 78.4489 12.0335ZM80.8826 7.10817L81.7808 5.89131C81.7808 5.89131 82.7948 6.71704 83.3888 7.282C83.3453 7.44135 83.2005 7.51379 82.9832 7.51379H78.869L78.7531 7.10817H80.8826ZM83.5481 8.96242H82.9976V11.034H83.5481V8.96242ZM82.8093 12.019L84.8809 12.8158C84.8229 12.9752 84.6925 13.0766 84.3449 13.0766C84.171 13.4097 83.9682 13.7574 83.7364 14.0761C86.6917 14.5252 85.7935 17.1038 84.3159 16.336C84.1421 15.771 83.7364 15.1626 83.2584 14.6845C82.563 15.4813 81.6504 16.1766 80.5205 16.6112L80.4191 16.4519C81.5345 15.3509 82.1574 13.627 82.4182 12.1929C82.1864 12.2653 81.9112 12.3233 81.6359 12.3233H81.4186V7.90492L83.0556 8.55681H83.4322L84.1566 7.818L85.6342 8.90448C85.5762 8.9914 85.4458 9.07832 85.243 9.12177V11.6279C85.2285 11.7293 84.3883 12.0335 83.8523 12.0335H83.5481V11.4396H82.9976V11.8452C82.9976 11.8887 82.9252 11.9466 82.8093 12.019ZM79.4919 2.79123L82.0415 3.47209C81.9836 3.66041 81.8532 3.76182 81.3897 3.80528C82.3747 4.84829 84.1855 5.5871 85.9094 5.76094V5.96374C85.1996 6.28244 84.9388 7.10817 84.8374 7.87595C83.2584 7.09368 81.9691 5.6885 81.2303 3.95014C80.3901 5.65953 78.8111 7.15163 76.5512 8.00632L76.4643 7.86146C78.0433 6.63012 79.1443 4.39922 79.4919 2.79123ZM95.7022 12.7868L95.8036 12.6854C101.569 12.7723 100.874 16.7126 98.7588 15.9304C98.0635 14.8294 96.7307 13.5546 95.7022 12.7868ZM99.6135 5.51467L101.439 7.22406C101.308 7.35444 101.178 7.3979 100.859 7.41238C100.265 7.91941 99.2514 8.52783 98.4401 8.86102L98.3532 8.7741C98.4836 8.25259 98.5995 7.54276 98.6864 6.97779H94.0218L95.4414 7.97735C95.3545 8.09324 95.1517 8.18016 94.8475 8.07876C94.2535 8.31054 93.3844 8.58578 92.4717 8.80307C93.1816 8.78859 93.9783 8.78859 94.8185 8.7741C95.427 8.41194 95.934 8.04978 96.2672 7.76006L98.4691 9.02037C98.3822 9.17972 98.1504 9.28113 97.7593 9.19421C96.3686 9.87507 93.7755 10.6573 91.4142 11.1499C93.0802 11.1499 95.3545 11.1209 97.7448 11.0629C97.4406 10.6573 97.0929 10.2952 96.7887 9.99096L96.9046 9.90404C101.656 10.1648 100.512 13.714 98.6574 12.6999C98.5126 12.2798 98.2663 11.8452 97.991 11.4251C97.2667 11.541 96.4265 11.6714 95.4849 11.8018V14.4383C95.4849 15.6986 95.1952 16.4229 93.0946 16.5678C93.0657 15.9883 93.0222 15.5682 92.8339 15.3075C92.66 15.0757 92.4283 14.8584 91.7619 14.7425V14.5687C91.7619 14.5687 92.9063 14.6411 93.1816 14.6411C93.3699 14.6411 93.4278 14.5397 93.4278 14.4093V12.0915C92.6456 12.1929 91.8198 12.3088 90.9651 12.4102L93.1526 13.6126C93.0802 13.7574 92.9353 13.8443 92.6021 13.8009C91.5011 14.7859 89.6034 15.771 87.6767 16.2346L87.5608 16.0897C88.966 15.1191 90.3277 13.5546 90.9507 12.4102L90.0815 12.5261C89.9511 12.7723 89.7918 12.9317 89.6179 12.9896L88.8356 11.1064C88.8356 11.1064 89.2558 11.0774 89.502 11.005C90.6609 10.7732 92.0806 10.2083 93.3554 9.57085C92.5586 9.71572 91.675 9.87507 90.7478 10.0199C90.6754 10.1068 90.5885 10.1648 90.5016 10.2083L89.8932 8.81756C89.8932 8.81756 90.1249 8.7741 90.2843 8.71616C91.3418 8.46989 92.718 7.57173 93.4278 6.97779H89.8642C90.3133 10.3386 86.4164 9.4115 87.952 7.54276C88.6039 7.29649 89.2123 6.74601 89.3716 5.73196H89.5455C89.6469 6.03618 89.7338 6.31142 89.7917 6.57217H93.4713V5.15251H89.1254L89.0095 4.74689H93.4713V2.83469L96.0644 3.0375C96.0354 3.24031 95.934 3.38517 95.5284 3.44312V4.74689H97.3102L98.3822 3.37068C98.3822 3.37068 99.599 4.29781 100.323 4.92073C100.294 5.08008 100.121 5.15251 99.9032 5.15251H95.5284V6.57217H98.5705L99.6135 5.51467ZM104.481 12.3233H104.669C105.321 13.8443 105.307 15.0032 104.858 15.6117C104.524 16.0463 103.641 15.9883 103.351 15.3944C103.105 14.8729 103.365 14.3658 103.815 14.0616C104.119 13.7429 104.582 12.9607 104.481 12.3233ZM105.35 12.2219L105.524 12.1784C108.146 14.0037 106.408 16.1911 105.394 14.9018C105.553 14.0182 105.495 12.9896 105.35 12.2219ZM106.509 12.048L106.654 11.9756C109.913 13.091 108.421 15.5827 107.204 14.4528C107.219 13.6415 106.886 12.6854 106.509 12.048ZM114.288 12.5985L114.361 12.613C114.708 12.7434 114.824 12.8882 114.824 13.1345C114.824 13.656 114.404 13.8443 112.984 13.8443H112.26C111.261 13.8443 111.13 13.5546 111.13 12.7579V10.3386H110.594L110.478 9.93301H113.216L113.81 9.13626C113.81 9.13626 114.477 9.70123 114.882 10.1068C114.839 10.2662 114.708 10.3386 114.52 10.3386H112.463V10.5414V12.4681C112.463 12.6275 112.506 12.6709 112.695 12.6709H113.158H113.578C113.651 12.6709 113.796 12.6565 113.854 12.6565C113.941 12.642 114.071 12.6275 114.158 12.5985H114.288ZM111.507 8.02081L111.637 7.96286C114.708 8.57129 112.926 10.6718 111.797 9.55637C111.84 9.00588 111.695 8.39746 111.507 8.02081ZM113.549 7.4993L114.172 6.65909C114.172 6.65909 114.592 7.02125 114.984 7.38341V5.32634C114.897 5.39878 114.766 5.45672 114.563 5.44224C114.201 6.03618 113.651 6.84741 113.1 7.4993H113.549ZM115.606 3.02301L117.229 4.28333C117.128 4.39922 116.939 4.51511 116.664 4.57305V14.3514C116.664 15.5103 116.418 16.1477 114.549 16.3215C114.52 15.7855 114.448 15.3799 114.245 15.1336C114.027 14.8874 113.752 14.699 113.086 14.5831V14.3803C113.086 14.3803 114.404 14.4672 114.694 14.4672C114.926 14.4672 114.984 14.3658 114.984 14.1775V7.90492H114.911H110.522L110.406 7.4993H112.811C112.984 6.67358 113.144 5.50018 113.216 4.67446L114.984 5.12354V4.3123H110.348V15.9738C110.348 16.0897 109.855 16.4809 109.059 16.4809H108.769V7.10817C108.682 7.13714 108.566 7.13714 108.421 7.10817C107.639 8.10773 106.132 9.49842 104.771 10.4111C105.408 10.3821 106.19 10.3386 107.016 10.2807C106.929 9.84609 106.813 9.42599 106.683 9.0928L106.842 9.03486C109.899 10.4111 108.262 12.7289 107.117 11.5265C107.132 11.3092 107.117 11.0774 107.103 10.8457C106.379 11.1933 105.437 11.6424 104.394 12.0625C104.278 12.2219 104.133 12.3233 103.988 12.3667L103.365 10.4111C103.365 10.4111 103.742 10.3386 103.901 10.2227C104.51 9.78815 105.249 8.83205 105.872 7.84697C105.48 8.0353 105.031 8.25259 104.568 8.4554C104.452 8.64372 104.322 8.75962 104.162 8.83205L103.351 6.90536C103.351 6.90536 103.67 6.81844 103.815 6.71704C104.423 6.07964 105.234 3.9936 105.437 2.87815L107.668 3.95014C107.61 4.08052 107.465 4.18192 107.19 4.16743C106.567 5.0511 105.495 6.21001 104.553 6.94882C105.089 6.94882 105.727 6.94882 106.408 6.93433C106.668 6.45628 106.886 5.99272 107.016 5.61607L108.769 6.81844V3.22582L110.551 3.90668H114.839L115.606 3.02301ZM110.565 4.84829L110.725 4.77586C113.723 5.87683 112.231 8.10773 111.116 7.03574C111.145 6.29693 110.855 5.42775 110.565 4.84829Z" fill="#454545"/>
<path d="M47.0604 23.0267V23.4281H44.0408V25.6403H46.2249V26.0417H44.0408V29.2153H43V23.0267H47.0604ZM48.7958 24.6182L49.4632 24.3476H49.7385V29.2153H48.7958V24.6182ZM48.7211 22.6067C48.7211 22.532 48.7351 22.462 48.7631 22.3967C48.7911 22.3314 48.83 22.2738 48.8798 22.224C48.9296 22.1742 48.9871 22.1353 49.0525 22.1074C49.1178 22.0793 49.1878 22.0653 49.2625 22.0653C49.3372 22.0653 49.4072 22.0793 49.4725 22.1074C49.5379 22.1353 49.5954 22.1742 49.6452 22.224C49.695 22.2738 49.7339 22.3314 49.7619 22.3967C49.7899 22.462 49.8039 22.532 49.8039 22.6067C49.8039 22.6814 49.7899 22.7514 49.7619 22.8167C49.7339 22.882 49.695 22.9396 49.6452 22.9894C49.5954 23.0392 49.5379 23.0781 49.4725 23.1061C49.4072 23.1341 49.3372 23.1481 49.2625 23.1481C49.1878 23.1481 49.1178 23.1341 49.0525 23.1061C48.9871 23.0781 48.9296 23.0392 48.8798 22.9894C48.83 22.9396 48.7911 22.882 48.7631 22.8167C48.7351 22.7514 48.7211 22.6814 48.7211 22.6067ZM52.9301 24.3476H53.2008V25.3137C53.4901 24.99 53.7904 24.7489 54.1015 24.5902C54.4127 24.4284 54.7285 24.3476 55.049 24.3476C55.2169 24.3476 55.3723 24.3849 55.5157 24.4596C55.6621 24.5342 55.7893 24.6369 55.8986 24.7676C56.0074 24.8982 56.0928 25.0522 56.1549 25.2296C56.217 25.4039 56.2481 25.5905 56.2481 25.7896V29.2153H55.3012V25.953C55.3012 25.7943 55.2821 25.6559 55.2451 25.5377C55.2076 25.4163 55.1548 25.3152 55.0863 25.2343C55.0178 25.1534 54.937 25.0927 54.8436 25.0522C54.7534 25.0087 54.6522 24.9869 54.5402 24.9869C54.4407 24.9869 54.3349 25.004 54.2229 25.0383C54.1109 25.0725 53.9958 25.1207 53.8775 25.1829C53.7624 25.2421 53.6473 25.3137 53.5321 25.3976C53.417 25.4816 53.3066 25.5749 53.2008 25.6776V29.2153H52.2487V24.6136L52.9301 24.3476ZM61.9741 28.7533C61.8653 28.8404 61.7471 28.9197 61.6192 28.9913C61.492 29.0598 61.3582 29.1188 61.2184 29.1687C61.081 29.2153 60.943 29.2511 60.8026 29.276C60.6628 29.304 60.526 29.318 60.3922 29.318C60.112 29.318 59.8492 29.2526 59.603 29.122C59.3605 28.9913 59.1472 28.8155 58.9638 28.5946C58.7834 28.3737 58.64 28.117 58.5343 27.8245C58.4286 27.5289 58.376 27.2178 58.376 26.8911C58.376 26.5675 58.4411 26.2533 58.5719 25.9483C58.7058 25.6434 58.8862 25.3727 59.1132 25.1363C59.3402 24.8967 59.6048 24.7053 59.9065 24.5622C60.2118 24.4191 60.5367 24.3476 60.882 24.3476C61.1156 24.3476 61.3175 24.388 61.489 24.4689C61.6628 24.5498 61.8247 24.6571 61.9741 24.7909V22.2707L62.6413 22H62.9167V29.2153H61.9741V28.7533ZM61.9741 25.9577C61.9741 25.771 61.9382 25.6014 61.8665 25.449C61.7984 25.2934 61.7082 25.1611 61.5959 25.0522C61.4842 24.9403 61.3564 24.8547 61.2136 24.7956C61.0732 24.7333 60.9316 24.7022 60.7888 24.7022C60.5989 24.7022 60.4215 24.7489 60.2566 24.8423C60.0917 24.9356 59.9471 25.0678 59.8229 25.239C59.701 25.407 59.6048 25.6092 59.5331 25.8457C59.4615 26.079 59.4262 26.3373 59.4262 26.6204C59.4262 26.9253 59.465 27.21 59.5427 27.4745C59.6204 27.7389 59.7261 27.9708 59.8599 28.1699C59.9967 28.3659 60.1556 28.5214 60.336 28.6366C60.5194 28.7486 60.7154 28.8046 60.9239 28.8046C61.0236 28.8046 61.1234 28.7922 61.2226 28.7673C61.3253 28.7393 61.4221 28.7035 61.5123 28.6599C61.6025 28.6133 61.6861 28.5603 61.7644 28.5013C61.845 28.4421 61.9149 28.3799 61.9741 28.3146V25.9577ZM68.8715 23.3301C68.4981 23.3301 68.1529 23.397 67.835 23.5308C67.5208 23.6615 67.249 23.8512 67.0184 24.1002C66.7914 24.346 66.614 24.6447 66.4867 24.9963C66.3589 25.3447 66.295 25.7352 66.295 26.1677C66.295 26.6033 66.3637 26.9969 66.5005 27.3485C66.6403 27.6969 66.8302 27.9941 67.0698 28.2399C67.3123 28.4857 67.5973 28.6755 67.9241 28.8093C68.2508 28.94 68.6009 29.0053 68.9743 29.0053C69.2449 29.0053 69.4892 28.9695 69.7067 28.898C69.9247 28.8233 70.1207 28.7175 70.2951 28.5806V26.4104H69.1236V26.0417H71.3357V28.7626C71.1553 28.859 70.9731 28.9446 70.7897 29.0193C70.6057 29.094 70.4068 29.1562 70.1923 29.206C69.9809 29.2558 69.7473 29.2931 69.4922 29.318C69.2371 29.346 68.9474 29.36 68.6242 29.36C68.2819 29.36 67.9569 29.3211 67.6487 29.2433C67.3404 29.1687 67.0543 29.0613 66.7896 28.9213C66.5286 28.7813 66.292 28.6148 66.0805 28.4219C65.869 28.2259 65.6886 28.0097 65.5393 27.7732C65.3929 27.5367 65.2794 27.2831 65.1982 27.0124C65.1175 26.7418 65.0769 26.4602 65.0769 26.1677C65.0769 25.8784 65.1145 25.5968 65.1892 25.323C65.2669 25.046 65.3774 24.7862 65.5202 24.5436C65.6635 24.2977 65.838 24.0737 66.0429 23.8715C66.2484 23.6692 66.4802 23.495 66.7382 23.3488C66.9969 23.2025 67.2783 23.089 67.5835 23.0081C67.8882 22.9272 68.212 22.8867 68.5543 22.8867C68.8805 22.8867 69.1828 22.9319 69.4593 23.0221C69.7395 23.1092 69.9928 23.2259 70.2204 23.3721C70.4504 23.5183 70.6541 23.6879 70.8315 23.8808C71.009 24.0706 71.1613 24.2698 71.2891 24.4782L70.8411 24.7769C70.5794 24.276 70.2885 23.9104 69.9683 23.6802C69.6505 23.4468 69.2855 23.3301 68.8715 23.3301ZM75.8902 29.318C75.5228 29.318 75.1853 29.2542 74.8771 29.1267C74.5694 28.9991 74.303 28.8264 74.0789 28.6086C73.8549 28.3877 73.6793 28.131 73.552 27.8385C73.4272 27.5429 73.3651 27.2271 73.3651 26.8911C73.3651 26.5395 73.4272 26.2097 73.552 25.9017C73.6793 25.5905 73.8549 25.3199 74.0789 25.0896C74.303 24.8593 74.5694 24.6789 74.8771 24.5482C75.1853 24.4144 75.5228 24.3476 75.8902 24.3476C76.254 24.3476 76.5886 24.4082 76.8932 24.5295C77.2015 24.6509 77.4673 24.8173 77.6914 25.0289C77.9154 25.2405 78.0898 25.4894 78.2141 25.7757C78.3419 26.0588 78.4058 26.3637 78.4058 26.6904C78.4058 27.0513 78.3419 27.392 78.2141 27.7125C78.0898 28.0299 77.9154 28.3084 77.6914 28.5479C77.4673 28.7844 77.2015 28.9727 76.8932 29.1126C76.5886 29.2495 76.254 29.318 75.8902 29.318ZM76.0718 28.9679C76.2588 28.9679 76.4297 28.9197 76.5856 28.8233C76.7409 28.7268 76.8747 28.5977 76.987 28.4359C77.0987 28.271 77.186 28.0812 77.2481 27.8665C77.3102 27.6518 77.3413 27.4247 77.3413 27.1851C77.3413 26.8397 77.312 26.5162 77.2529 26.2144C77.1937 25.9126 77.0969 25.6496 76.9631 25.4256C76.8293 25.2016 76.6555 25.0258 76.4404 24.8982C76.226 24.7676 75.9649 24.7022 75.6566 24.7022C75.4977 24.7022 75.3442 24.7489 75.1949 24.8423C75.0455 24.9325 74.9129 25.057 74.7976 25.2156C74.6859 25.3743 74.5957 25.561 74.527 25.7757C74.4589 25.9873 74.4242 26.2128 74.4242 26.4524C74.4242 26.8008 74.4601 27.1276 74.5318 27.4325C74.6064 27.7374 74.714 28.0035 74.8538 28.2306C74.9971 28.4577 75.1698 28.6382 75.3717 28.7719C75.5772 28.9026 75.8108 28.9679 76.0718 28.9679ZM82.722 29.318C82.3546 29.318 82.017 29.2542 81.7088 29.1267C81.4011 28.9991 81.1353 28.8264 80.9113 28.6086C80.6873 28.3877 80.511 28.131 80.3838 27.8385C80.2589 27.5429 80.1968 27.2271 80.1968 26.8911C80.1968 26.5395 80.2589 26.2097 80.3838 25.9017C80.511 25.5905 80.6873 25.3199 80.9113 25.0896C81.1353 24.8593 81.4011 24.6789 81.7088 24.5482C82.017 24.4144 82.3546 24.3476 82.722 24.3476C83.0858 24.3476 83.4203 24.4082 83.725 24.5295C84.0332 24.6509 84.2991 24.8173 84.5231 25.0289C84.7471 25.2405 84.9215 25.4894 85.0458 25.7757C85.1736 26.0588 85.2376 26.3637 85.2376 26.6904C85.2376 27.0513 85.1736 27.392 85.0458 27.7125C84.9215 28.0299 84.7471 28.3084 84.5231 28.5479C84.2991 28.7844 84.0332 28.9727 83.725 29.1126C83.4203 29.2495 83.0858 29.318 82.722 29.318ZM82.9036 28.9679C83.0905 28.9679 83.2614 28.9197 83.4173 28.8233C83.5726 28.7268 83.7064 28.5977 83.8188 28.4359C83.9305 28.271 84.0177 28.0812 84.0798 27.8665C84.142 27.6518 84.173 27.4247 84.173 27.1851C84.173 26.8397 84.1437 26.5162 84.0846 26.2144C84.0255 25.9126 83.9293 25.6496 83.7955 25.4256C83.6617 25.2016 83.4872 25.0258 83.2728 24.8982C83.0577 24.7676 82.7966 24.7022 82.4884 24.7022C82.3301 24.7022 82.1759 24.7489 82.0266 24.8423C81.8772 24.9325 81.7446 25.057 81.6299 25.2156C81.5176 25.3743 81.4274 25.561 81.3593 25.7757C81.2906 25.9873 81.2566 26.2128 81.2566 26.4524C81.2566 26.8008 81.2924 27.1276 81.3635 27.4325C81.4382 27.7374 81.5457 28.0035 81.6855 28.2306C81.8289 28.4577 82.0015 28.6382 82.204 28.7719C82.4089 28.9026 82.6425 28.9679 82.9036 28.9679ZM90.6272 28.7533C90.5185 28.8404 90.4002 28.9197 90.2723 28.9913C90.1451 29.0598 90.0113 29.1188 89.8709 29.1687C89.7341 29.2153 89.5955 29.2511 89.4557 29.276C89.3159 29.304 89.1785 29.318 89.0447 29.318C88.7651 29.318 88.5023 29.2526 88.2562 29.122C88.0136 28.9913 87.8004 28.8155 87.617 28.5946C87.4365 28.3737 87.2932 28.117 87.1874 27.8245C87.0817 27.5289 87.0285 27.2178 87.0285 26.8911C87.0285 26.5675 87.0942 26.2533 87.2251 25.9483C87.3589 25.6434 87.5393 25.3727 87.7663 25.1363C87.9933 24.8967 88.258 24.7053 88.5596 24.5622C88.8643 24.4191 89.1899 24.3476 89.5352 24.3476C89.7681 24.3476 89.9707 24.388 90.1415 24.4689C90.316 24.5498 90.4778 24.6571 90.6272 24.7909V22.2707L91.2945 22H91.5699V29.2153H90.6272V28.7533ZM90.6272 25.9577C90.6272 25.771 90.5914 25.6014 90.5197 25.449C90.4516 25.2934 90.3614 25.1611 90.2491 25.0522C90.1373 24.9403 90.0095 24.8547 89.8661 24.7956C89.7263 24.7333 89.5848 24.7022 89.442 24.7022C89.252 24.7022 89.0746 24.7489 88.9097 24.8423C88.7448 24.9356 88.6003 25.0678 88.4754 25.239C88.3541 25.407 88.258 25.6092 88.1863 25.8457C88.1146 26.079 88.0787 26.3373 88.0787 26.6204C88.0787 26.9253 88.1176 27.21 88.1958 27.4745C88.2735 27.7389 88.3792 27.9708 88.513 28.1699C88.6498 28.3659 88.8088 28.5214 88.9892 28.6366C89.1726 28.7486 89.3685 28.8046 89.577 28.8046C89.6768 28.8046 89.7759 28.7922 89.8757 28.7673C89.9784 28.7393 90.0746 28.7035 90.1648 28.6599C90.2556 28.6133 90.3393 28.5603 90.4169 28.5013C90.4982 28.4421 90.5681 28.3799 90.6272 28.3146V25.9577ZM94.0054 23.0267H96.4977C96.8275 23.0267 97.1292 23.0641 97.4028 23.1387C97.68 23.2103 97.9165 23.313 98.1125 23.4468C98.3114 23.5806 98.4655 23.7408 98.5743 23.9275C98.6836 24.1142 98.7379 24.3195 98.7379 24.5436C98.7379 24.7146 98.7206 24.8672 98.6866 25.0009C98.6525 25.1347 98.5916 25.2592 98.5044 25.3743C98.4171 25.4863 98.3006 25.5936 98.1543 25.6963C98.0115 25.7959 97.8293 25.8986 97.6083 26.0044V26.023C97.8293 26.0572 98.0282 26.1164 98.2057 26.2004C98.3831 26.2844 98.5342 26.3917 98.6585 26.5224C98.7863 26.6499 98.8843 26.8008 98.9524 26.9751C99.0211 27.1463 99.0551 27.3345 99.0551 27.5398C99.0551 27.7732 99.0038 27.9925 98.901 28.1979C98.8019 28.4001 98.6567 28.5775 98.4673 28.7299C98.2803 28.8793 98.0533 28.9975 97.7857 29.0846C97.5211 29.1718 97.2241 29.2153 96.8944 29.2153H94.0054V23.0267ZM95.0461 25.813H96.3717C96.5802 25.813 96.7654 25.7834 96.9273 25.7243C97.0885 25.6652 97.2259 25.5843 97.3377 25.4816C97.45 25.3758 97.5336 25.2514 97.5898 25.1083C97.6489 24.962 97.6782 24.8049 97.6782 24.6369C97.6782 24.4565 97.6441 24.2931 97.5754 24.1468C97.5073 23.9975 97.3998 23.8699 97.2534 23.7641C97.1107 23.6583 96.9273 23.5775 96.7032 23.5215C96.4822 23.4655 96.2158 23.4374 95.9051 23.4374H95.0461V25.813ZM95.0461 28.7626H96.171C96.4726 28.7626 96.7343 28.7346 96.9547 28.6786C97.1788 28.6195 97.3628 28.5386 97.5055 28.4359C97.6519 28.3301 97.7594 28.2041 97.8275 28.0579C97.8992 27.9116 97.935 27.7514 97.935 27.5772C97.935 27.3812 97.904 27.1991 97.8418 27.0311C97.7797 26.8631 97.677 26.7184 97.5336 26.5971C97.3938 26.4726 97.2086 26.3746 96.978 26.303C96.751 26.2315 96.4714 26.1957 96.1381 26.1957H95.0461V28.7626ZM103.292 29.318C102.925 29.318 102.588 29.2542 102.279 29.1267C101.972 28.9991 101.705 28.8264 101.481 28.6086C101.257 28.3877 101.081 28.131 100.954 27.8385C100.829 27.5429 100.767 27.2271 100.767 26.8911C100.767 26.5395 100.829 26.2097 100.954 25.9017C101.081 25.5905 101.257 25.3199 101.481 25.0896C101.705 24.8593 101.972 24.6789 102.279 24.5482C102.588 24.4144 102.925 24.3476 103.292 24.3476C103.656 24.3476 103.991 24.4082 104.295 24.5295C104.604 24.6509 104.87 24.8173 105.094 25.0289C105.318 25.2405 105.492 25.4894 105.616 25.7757C105.744 26.0588 105.807 26.3637 105.807 26.6904C105.807 27.0513 105.744 27.392 105.616 27.7125C105.492 28.0299 105.318 28.3084 105.094 28.5479C104.87 28.7844 104.604 28.9727 104.295 29.1126C103.991 29.2495 103.656 29.318 103.292 29.318ZM103.474 28.9679C103.661 28.9679 103.832 28.9197 103.988 28.8233C104.143 28.7268 104.277 28.5977 104.389 28.4359C104.501 28.271 104.588 28.0812 104.65 27.8665C104.712 27.6518 104.743 27.4247 104.743 27.1851C104.743 26.8397 104.714 26.5162 104.655 26.2144C104.596 25.9126 104.499 25.6496 104.365 25.4256C104.232 25.2016 104.058 25.0258 103.843 24.8982C103.628 24.7676 103.367 24.7022 103.059 24.7022C102.9 24.7022 102.746 24.7489 102.596 24.8423C102.447 24.9325 102.315 25.057 102.2 25.2156C102.088 25.3743 101.998 25.561 101.929 25.7757C101.861 25.9873 101.826 26.2128 101.826 26.4524C101.826 26.8008 101.862 27.1276 101.934 27.4325C102.009 27.7374 102.116 28.0035 102.256 28.2306C102.399 28.4577 102.572 28.6382 102.774 28.7719C102.979 28.9026 103.213 28.9679 103.474 28.9679ZM110.124 29.318C109.757 29.318 109.419 29.2542 109.112 29.1267C108.803 28.9991 108.537 28.8264 108.313 28.6086C108.089 28.3877 107.913 28.131 107.786 27.8385C107.661 27.5429 107.599 27.2271 107.599 26.8911C107.599 26.5395 107.661 26.2097 107.786 25.9017C107.913 25.5905 108.089 25.3199 108.313 25.0896C108.537 24.8593 108.803 24.6789 109.112 24.5482C109.419 24.4144 109.757 24.3476 110.124 24.3476C110.488 24.3476 110.823 24.4082 111.128 24.5295C111.435 24.6509 111.701 24.8173 111.925 25.0289C112.149 25.2405 112.324 25.4894 112.448 25.7757C112.576 26.0588 112.64 26.3637 112.64 26.6904C112.64 27.0513 112.576 27.392 112.448 27.7125C112.324 28.0299 112.149 28.3084 111.925 28.5479C111.701 28.7844 111.435 28.9727 111.128 29.1126C110.823 29.2495 110.488 29.318 110.124 29.318ZM110.306 28.9679C110.493 28.9679 110.664 28.9197 110.82 28.8233C110.975 28.7268 111.109 28.5977 111.221 28.4359C111.333 28.271 111.42 28.0812 111.482 27.8665C111.544 27.6518 111.576 27.4247 111.576 27.1851C111.576 26.8397 111.546 26.5162 111.487 26.2144C111.428 25.9126 111.331 25.6496 111.198 25.4256C111.064 25.2016 110.889 25.0258 110.675 24.8982C110.46 24.7676 110.199 24.7022 109.891 24.7022C109.732 24.7022 109.578 24.7489 109.429 24.8423C109.279 24.9325 109.147 25.057 109.032 25.2156C108.92 25.3743 108.83 25.561 108.762 25.7757C108.693 25.9873 108.659 26.2128 108.659 26.4524C108.659 26.8008 108.695 27.1276 108.766 27.4325C108.84 27.7374 108.948 28.0035 109.088 28.2306C109.231 28.4577 109.404 28.6382 109.606 28.7719C109.811 28.9026 110.045 28.9679 110.306 28.9679ZM115.612 26.3637L118.011 24.4362H118.627L116.485 26.1771L119.131 29.2153H117.88L115.612 26.6017V29.2153H114.66V22.2707L115.341 22H115.612V26.3637Z" fill="#454545"/>
<mask id="mask0_228_976" style="mask-type:luminance" maskUnits="userSpaceOnUse" x="9" y="8" width="14" height="16">
<path d="M22.5454 8.7742H9.29004V23.2258H22.5454V8.7742Z" fill="white"/>
</mask>
<g mask="url(#mask0_228_976)">
<mask id="mask1_228_976" style="mask-type:luminance" maskUnits="userSpaceOnUse" x="9" y="8" width="14" height="16">
<path d="M22.5454 8.7742H9.29004V23.2258H22.5454V8.7742Z" fill="white"/>
</mask>
<g mask="url(#mask1_228_976)">
<path d="M22.5405 13.2647C22.5396 13.2612 22.5382 13.2578 22.5371 13.2544C22.5342 13.2451 22.5307 13.2364 22.5263 13.2279C22.5246 13.2246 22.523 13.2215 22.521 13.2181C22.5146 13.208 22.5075 13.1982 22.499 13.1895C22.4986 13.1889 22.4982 13.1884 22.4977 13.1879C22.4886 13.1788 22.4785 13.1712 22.4675 13.1646C22.4663 13.1637 22.4652 13.1626 22.464 13.1617L14.902 8.79612C14.8516 8.76685 14.7893 8.76685 14.7386 8.79612L9.39244 11.8844C9.39115 11.8852 9.39002 11.8865 9.38878 11.8873C9.37784 11.894 9.36757 11.9016 9.35859 11.9105C9.35822 11.9111 9.35776 11.9117 9.35745 11.9122C9.34893 11.9209 9.34171 11.9306 9.33546 11.9411C9.3335 11.9443 9.3319 11.9473 9.33015 11.9507C9.32581 11.9592 9.3221 11.9679 9.31921 11.9772C9.31812 11.9807 9.31699 11.9839 9.31601 11.9875C9.31296 12 9.3109 12.0128 9.3109 12.0262V13.8271C9.3109 13.8853 9.34186 13.9391 9.39213 13.9685L10.0357 14.34L9.67441 14.5488L9.67219 14.5501C9.65804 14.5582 9.64581 14.5689 9.63508 14.5806C9.6341 14.5817 9.6325 14.5823 9.63172 14.5835C9.36401 14.8924 9.01975 15.6633 9.63172 16.3697C9.63281 16.3709 9.63441 16.3718 9.63554 16.3729C9.64597 16.3843 9.65789 16.3949 9.67198 16.4031L10.0595 16.6271L9.57232 16.9082C9.52318 16.9365 9.49299 16.989 9.49299 17.0455C9.49299 17.102 9.52318 17.1546 9.57232 17.1828L10.0961 17.4851L9.57247 17.7875C9.52333 17.8159 9.49314 17.8681 9.49314 17.9248C9.49314 17.9815 9.52333 18.0338 9.57232 18.0621L10.0964 18.3646L9.57247 18.6671C9.52333 18.6956 9.49314 18.7478 9.49314 18.8044C9.49314 18.8611 9.52333 18.9134 9.57247 18.9417L16.9557 23.2046C16.9802 23.2186 17.0075 23.2258 17.0347 23.2258C17.0622 23.2258 17.0895 23.2186 17.114 23.2044L22.3349 20.1903C22.384 20.1621 22.4142 20.1097 22.4142 20.053C22.4142 19.9964 22.384 19.944 22.3349 19.9158L21.811 19.6133L22.3349 19.3107C22.384 19.2823 22.4142 19.2301 22.4142 19.1734C22.4142 19.1167 22.384 19.0644 22.3349 19.0361L21.8111 18.7338L22.3349 18.4314C22.384 18.4031 22.4142 18.3508 22.4142 18.2943C22.4142 18.2375 22.384 18.1851 22.3349 18.157L21.9474 17.9333L22.4348 17.6519C22.484 17.6234 22.5141 17.5711 22.5141 17.5146C22.5141 17.458 22.484 17.4055 22.4348 17.3773L22.3308 17.3167L22.4345 17.257C22.4837 17.2286 22.5138 17.1762 22.5139 17.1197C22.5139 17.0629 22.4837 17.0105 22.4346 16.9822L22.3309 16.9225L22.4346 16.8626C22.4837 16.8342 22.5139 16.7819 22.5139 16.7254C22.5139 16.6688 22.4837 16.6163 22.4346 16.5881L22.3308 16.528L22.4345 16.4681C22.4837 16.4397 22.5139 16.3873 22.5139 16.3307C22.5139 16.274 22.4837 16.2216 22.4346 16.1935L22.3306 16.1335L22.4346 16.0732C22.4837 16.0448 22.5139 15.9927 22.5139 15.9359C22.5139 15.8793 22.4837 15.8269 22.4346 15.7986L21.9724 15.5318L22.4639 15.2481C22.4655 15.2471 22.4668 15.2458 22.4682 15.2448C22.4732 15.2416 22.4778 15.2383 22.4821 15.2347C22.4862 15.2315 22.4904 15.2286 22.4939 15.225C22.4977 15.2216 22.5013 15.2174 22.5047 15.2136C22.5082 15.2095 22.5117 15.2055 22.5148 15.2013C22.5178 15.197 22.5202 15.1924 22.523 15.1879C22.5255 15.1834 22.5281 15.1789 22.5304 15.1744C22.5326 15.1694 22.5342 15.1644 22.536 15.159C22.5376 15.1542 22.5393 15.1492 22.5405 15.1442C22.5418 15.1393 22.5424 15.1342 22.543 15.1291C22.544 15.1233 22.5448 15.1178 22.545 15.1119C22.545 15.11 22.5454 15.1084 22.5454 15.1066V13.3034C22.5456 13.2901 22.5437 13.277 22.5405 13.2647ZM22.0554 13.3034L19.8565 14.5734L16.3242 12.565C16.5383 12.5961 16.8042 12.6256 17.0452 12.6256C17.4034 12.6256 17.6173 12.5599 17.6983 12.4247C17.7512 12.3362 17.7443 12.228 17.6777 12.1034C17.5633 11.8882 17.3971 11.7755 17.1842 11.7656L18.288 11.1282L22.0554 13.3034ZM13.2666 14.0269L15.9021 12.5058L19.6988 14.6644L17.0347 16.2028L13.2666 14.0269ZM16.8713 16.4861V17.9094L13.1439 15.7576L13.1503 14.3375L16.8713 16.4861ZM15.8733 12.205C15.4269 11.5994 14.7808 10.578 14.9489 10.2361C14.9623 10.2091 15.0029 10.1268 15.197 10.1268L15.2227 10.1273C15.4522 10.1358 15.6207 10.2059 15.7385 10.3421C16.0392 10.6902 15.9591 11.4218 15.8882 12.0671C15.8831 12.1135 15.878 12.1593 15.8733 12.205ZM17.1984 16.4861L19.8632 14.947L19.8567 16.3751L17.1984 17.9096V16.4861ZM16.1431 12.3772C16.1557 12.3692 16.1686 12.3611 16.1815 12.353C16.2473 12.3114 16.3146 12.2692 16.3835 12.2272C16.4493 12.1855 16.5201 12.1468 16.5866 12.1106C16.8258 11.981 17.006 11.9209 17.1539 11.9209C17.3237 11.9209 17.446 12.0023 17.5391 12.1773C17.5779 12.25 17.5861 12.3061 17.5635 12.3438C17.5409 12.3812 17.4455 12.4682 17.0452 12.4682C16.7319 12.4684 16.3642 12.4151 16.1431 12.3772ZM14.8204 9.12639L18.1305 11.0375L16.5121 11.9724C16.4429 12.0096 16.3696 12.05 16.3008 12.0936C16.3004 12.0938 16.3001 12.0939 16.3 12.0941L16.0262 12.2518C16.0321 12.1967 16.0382 12.141 16.0443 12.0845C16.1187 11.407 16.2028 10.6393 15.8573 10.2395C15.7118 10.0709 15.5002 9.98033 15.2285 9.97036C15.0154 9.96138 14.8759 10.029 14.8079 10.1669C14.5934 10.6029 15.2914 11.6676 15.67 12.1932L12.5663 10.4286L14.8204 9.12639ZM12.4087 10.5197L15.7439 12.416L13.1096 13.9362L9.80674 12.0289L9.80127 12.0258L12.4087 10.5197ZM9.80721 13.8315L9.63766 13.7329V12.3093L12.9931 14.2468L12.9869 15.6671L9.80721 13.8315ZM9.85443 16.142C9.42264 15.6236 9.65835 15.1111 9.79564 14.8958L14.0383 17.3455L16.9023 18.9991C16.7614 19.2222 16.6393 19.5522 16.6828 19.9132C16.6829 19.9231 16.6841 19.9328 16.6861 19.9427C16.694 19.9967 16.7056 20.0514 16.7216 20.1067L9.85443 16.142ZM21.9383 20.0529L17.0347 22.8839L9.9766 18.8089L9.9686 18.8044L10.4133 18.5475L16.9556 22.3247C16.9802 22.3388 17.0075 22.346 17.0347 22.346C17.0622 22.346 17.0895 22.3388 17.114 22.3247L21.4937 19.7961L21.9383 20.0529ZM21.9383 19.1733L17.0347 22.0043L9.9766 17.9295L9.9686 17.9248L10.4132 17.6681L16.9556 21.4452C16.9802 21.4593 17.0075 21.4666 17.0347 21.4666C17.0622 21.4664 17.0895 21.4593 17.114 21.4452L21.494 18.9167L21.9383 19.1733ZM17.0347 21.1247L9.9766 17.0497L9.96875 17.0454L10.3766 16.8096L17.0553 20.6658C17.0664 20.672 17.0781 20.6764 17.0898 20.6801C17.0913 20.6804 17.0925 20.6814 17.094 20.6818C17.1073 20.6852 17.121 20.6872 17.1344 20.6872C17.1351 20.6872 17.1357 20.687 17.1365 20.6872C17.15 20.6872 17.1629 20.6849 17.1753 20.6818C17.1944 20.677 17.2123 20.6688 17.2279 20.6577L21.6302 18.1162L21.9383 18.2941L17.0347 21.1247ZM17.0066 20.0209L22.0136 17.0661L22.0377 17.0902L17.0113 20.0495C17.0097 20.0431 17.0081 20.037 17.0066 20.0209ZM17.1912 20.3797L17.1763 20.357L22.0139 17.5019L22.038 17.5258L17.1912 20.3797ZM16.987 19.7007L16.9919 19.6565L22.0138 16.7019L22.0379 16.726L16.987 19.7007ZM17.1987 19.1799L17.2284 19.1302L22.0138 16.3061L22.0382 16.3302L17.1987 19.1799ZM22.0382 15.9355L17.1346 18.7667L10.0763 14.6913L10.0688 14.687L10.3529 14.5231L16.953 18.3343C16.9551 18.3354 16.9572 18.3359 16.9593 18.3369C16.9679 18.3414 16.9768 18.345 16.9863 18.3479C16.9896 18.349 16.993 18.3503 16.9965 18.3511C17.0087 18.3542 17.0214 18.3561 17.0346 18.3561C17.0479 18.3561 17.0606 18.354 17.073 18.3511C17.0763 18.3503 17.0795 18.349 17.0831 18.3479C17.0925 18.3449 17.1014 18.3414 17.1101 18.3369C17.1121 18.3357 17.1142 18.3354 17.1163 18.3343L21.6551 15.7144L22.0382 15.9355ZM22.2187 15.0117L20.0142 16.2842L20.0207 14.8561L22.2187 13.5866V15.0117Z" fill="#454545"/>
</g>
</g>
<path d="M3.59503 12.1095L3.51316 12.3611L0.508789 11.3829L1.01919 9.81512L1.25251 9.8911L0.823982 11.2074L2.13654 11.6347L2.50414 10.5057L2.73383 10.5804L2.36635 11.7094L3.59503 12.1095Z" fill="#454545"/>
<path d="M3.23948 7.99101L2.9565 8.47395L2.748 8.35194L3.16024 7.6482L4.92916 8.68443L5.21211 8.20139L5.42063 8.3235L4.70612 9.54327L4.49762 9.42115L4.80002 8.90497L3.23948 7.99101ZM2.68531 7.54343C2.65598 7.59344 2.61398 7.62554 2.55919 7.63994C2.5044 7.65424 2.44974 7.64546 2.39544 7.61362C2.34103 7.58177 2.30819 7.5393 2.29678 7.48624C2.28536 7.43323 2.29439 7.38167 2.3236 7.3315C2.35295 7.28149 2.39181 7.24954 2.44058 7.23561C2.49036 7.22131 2.54289 7.23034 2.59805 7.2627C2.65397 7.29542 2.68971 7.33806 2.70525 7.3907C2.7213 7.44262 2.71465 7.49352 2.68531 7.54343Z" fill="#454545"/>
<path d="M4.63184 5.75371L4.80147 5.57627L4.94803 5.7023C5.05711 5.37508 5.18259 5.13722 5.32452 4.98877C5.46708 4.8397 5.63007 4.77162 5.8135 4.78453C5.99704 4.79732 6.17706 4.88822 6.35389 5.05723L7.45856 6.11387L7.28101 6.29957L6.17634 5.2429C6.06238 5.13395 5.94176 5.07152 5.81412 5.05572C5.6885 5.04281 5.57242 5.09208 5.46568 5.20352C5.35915 5.315 5.24468 5.53694 5.12256 5.86927L6.4647 7.15299L6.28793 7.33766L4.63184 5.75371Z" fill="#454545"/>
<path d="M7.90691 1.92561L8.12105 1.78595L9.65199 4.13398L9.92172 4.45857L9.73215 4.6173L9.55186 4.42961C9.441 4.70118 9.30072 4.89238 9.13081 5.00321C8.89101 5.15955 8.64637 5.19242 8.39703 5.10175C8.14763 5.01111 7.92306 4.81264 7.72348 4.50635C7.52425 4.2008 7.44152 3.91157 7.47501 3.6385C7.50846 3.36543 7.65303 3.14552 7.90866 2.97889C8.05999 2.88023 8.24394 2.81215 8.46056 2.77466L7.90691 1.92561ZM7.9513 4.35025C8.10577 4.58721 8.27651 4.74757 8.46335 4.83119C8.65014 4.91482 8.83094 4.89965 9.00585 4.78568C9.18149 4.67121 9.31047 4.47763 9.3931 4.20507L8.60224 2.99194C8.52864 3.00234 8.43424 3.02679 8.31888 3.06528C8.2043 3.10339 8.11605 3.14264 8.05401 3.18313C7.86268 3.30788 7.75899 3.47413 7.74294 3.682C7.7274 3.8905 7.79682 4.11329 7.9513 4.35025Z" fill="#454545"/>
<path d="M11.8642 3.7082C11.5138 3.83658 11.2099 3.81101 10.9525 3.63122C10.6943 3.4518 10.467 3.09398 10.2706 2.558C10.0741 2.02202 10.0148 1.60264 10.0928 1.29998C10.1706 0.997331 10.3969 0.777419 10.7712 0.640263C11.0152 0.550869 11.2894 0.505231 11.5937 0.503601L11.615 0.758487C11.3063 0.765512 11.0539 0.804877 10.8579 0.876717C10.5739 0.980779 10.4072 1.1553 10.3581 1.40016C10.3093 1.6459 10.3681 1.99595 10.5348 2.45031C10.7013 2.90479 10.8862 3.21221 11.0893 3.37282C11.2914 3.53292 11.5208 3.5659 11.7776 3.47187C11.9311 3.41557 12.1036 3.31151 12.2948 3.15981L11.9628 2.25372L11.4515 2.44103L11.3701 2.21899L12.131 1.94015L12.6091 3.24469C12.3389 3.47074 12.0906 3.6252 11.8642 3.7082Z" fill="#454545"/>
<path d="M13.5538 2.03543C13.4503 1.25496 13.7032 0.8243 14.3123 0.743556C14.9205 0.662942 15.2763 1.01299 15.3796 1.79357C15.4831 2.57492 15.2308 3.00596 14.6226 3.08645C14.0135 3.16707 13.6574 2.81676 13.5538 2.03543ZM14.3451 0.991923C13.9177 1.04859 13.7447 1.38435 13.8262 1.99932C13.9078 2.61516 14.1622 2.89475 14.5896 2.83808C15.0162 2.78153 15.1887 2.4454 15.1072 1.82956C15.0257 1.21459 14.7717 0.935381 14.3451 0.991923Z" fill="#454545"/>
<path d="M16.7136 1.83046C16.7857 1.04649 17.1276 0.682525 17.7393 0.738695C18.3503 0.794865 18.6197 1.21487 18.5476 1.99897C18.4755 2.78382 18.134 3.14828 17.523 3.09212C16.9112 3.03595 16.6414 2.61531 16.7136 1.83046ZM17.7164 0.988192C17.2869 0.948698 17.044 1.23794 16.9872 1.85567C16.9304 2.47427 17.1166 2.80325 17.546 2.84262C17.9745 2.88199 18.2171 2.59237 18.274 1.9739C18.3308 1.35617 18.1449 1.02769 17.7164 0.988192Z" fill="#454545"/>
<path d="M21.9301 0.842621L22.173 0.92211L21.3016 3.58621L21.2173 3.9997L20.975 3.95143L21.0083 3.69328C20.7272 3.77703 20.4903 3.78744 20.2974 3.72438C20.0254 3.63536 19.8466 3.46522 19.7611 3.2141C19.6756 2.96284 19.6897 2.66358 19.8033 2.31616C19.9167 1.9695 20.0903 1.72376 20.3243 1.57883C20.5581 1.43389 20.82 1.40881 21.11 1.5036C21.2816 1.55977 21.45 1.66057 21.6149 1.80601L21.9301 0.842621ZM20.0678 2.3959C19.9798 2.66482 19.9617 2.89827 20.0135 3.09625C20.0652 3.29434 20.1904 3.42573 20.3887 3.49068C20.588 3.55587 20.8198 3.53531 21.0841 3.42899L21.5343 2.05262C21.4801 2.00172 21.4019 1.94342 21.2997 1.87772C21.1983 1.81227 21.1124 1.76801 21.0418 1.74495C20.8248 1.67399 20.6302 1.6973 20.4582 1.8149C20.2858 1.93339 20.1556 2.12697 20.0678 2.3959Z" fill="#454545"/>
<path d="M22.8252 4.86806L22.2256 4.50873L23.8497 1.79849L24.4867 2.18026C24.79 2.36205 24.9828 2.55162 25.0652 2.74896C25.1475 2.94631 25.1135 3.17072 24.9628 3.42223C24.7744 3.73655 24.4991 3.84863 24.1368 3.75873C24.2938 3.90944 24.3869 4.05914 24.416 4.20771C24.4452 4.35628 24.4043 4.52302 24.2936 4.70795C24.1185 5.00033 23.9156 5.15141 23.685 5.1613C23.4539 5.17085 23.1673 5.07305 22.8252 4.86806ZM24.0534 4.56403C24.2554 4.22714 24.1275 3.92148 23.67 3.64741L23.214 3.37408L22.574 4.44191L22.9468 4.66533C23.2034 4.81904 23.4203 4.89389 23.5976 4.88987C23.7744 4.88461 23.9265 4.77604 24.0534 4.56403ZM24.7634 2.72314C24.6748 2.60252 24.542 2.48919 24.3651 2.38312L23.9551 2.13738L23.3355 3.17123L23.7785 3.43665C23.9523 3.54084 24.1235 3.59023 24.2916 3.58484C24.4603 3.57858 24.609 3.4715 24.7376 3.26338C24.8657 3.05613 24.8744 2.87597 24.7634 2.72314Z" fill="#454545"/>
<path d="M25.381 5.31448C25.9248 4.74505 26.4188 4.67246 26.8632 5.09672C27.307 5.52037 27.257 6.01699 26.7131 6.58643C26.1689 7.1565 25.6748 7.22974 25.2312 6.80599C24.7869 6.38168 24.8368 5.8846 25.381 5.31448ZM26.6902 5.27789C26.3784 4.98013 26.0083 5.0556 25.5799 5.50432C25.151 5.95356 25.0924 6.32718 25.4041 6.62478C25.7153 6.92197 26.0854 6.84584 26.5144 6.3966C26.9428 5.94788 27.0014 5.57503 26.6902 5.27789Z" fill="#454545"/>
<path d="M27.5203 7.64961C28.1768 7.21493 28.6745 7.25359 29.0138 7.76584C29.3525 8.27738 29.1937 8.75041 28.5373 9.1852C27.8802 9.6204 27.3822 9.58231 27.0434 9.07077C26.7041 8.55862 26.8631 8.08481 27.5203 7.64961ZM28.8049 7.90412C28.5668 7.54468 28.1892 7.53617 27.672 7.87867C27.1541 8.22169 27.0142 8.57286 27.2522 8.93245C27.4899 9.29116 27.8676 9.29906 28.3855 8.95604C28.9027 8.61354 29.0425 8.26283 28.8049 7.90412Z" fill="#454545"/>
<path d="M30.6897 11.3305L30.7944 11.5998C30.3737 11.522 29.9474 11.4102 29.515 11.2647C29.3235 11.553 29.0415 11.9506 28.669 12.4575L28.5643 12.1883C28.8611 11.7969 29.1076 11.4505 29.3041 11.1492L29.1413 10.8504L28.1883 11.2209L28.0957 10.9827L31.0811 9.82208L31.1736 10.0604L29.357 10.7667L29.5157 11.0409C29.874 11.1466 30.2653 11.2431 30.6897 11.3305Z" fill="#454545"/>
<path d="M1.40356 20.8128L1.32031 20.5577L4.36995 19.5618L4.88963 21.1534L4.65279 21.2308L4.21636 19.8943L2.88462 20.3291L3.25887 21.4749L3.02555 21.5511L2.65142 20.4053L1.40356 20.8128Z" fill="#454545"/>
<path d="M4.81997 23.2964L4.53236 22.8056L4.74287 22.6822L5.16188 23.3966L3.36687 24.4492L3.65398 24.9388L3.44222 25.0629L2.7168 23.8258L2.92855 23.7017L3.2356 24.2254L4.81997 23.2964ZM5.4906 23.0276C5.46087 22.9768 5.45324 22.9235 5.46789 22.8674C5.48245 22.8115 5.51729 22.7673 5.57246 22.7351C5.62686 22.7032 5.68054 22.6953 5.7336 22.7116C5.7866 22.7279 5.828 22.7614 5.85783 22.8122C5.88756 22.8629 5.89644 22.9134 5.88451 22.964C5.87264 23.0144 5.83878 23.056 5.78284 23.0887C5.72632 23.122 5.67089 23.1327 5.61659 23.1211C5.56229 23.1094 5.52033 23.0782 5.4906 23.0276Z" fill="#454545"/>
<path d="M6.29957 24.8454L6.47284 25.0264L6.33766 25.1681C6.66515 25.2933 6.90112 25.4314 7.04554 25.5822C7.19046 25.7336 7.25214 25.9016 7.23072 26.0861C7.20915 26.2719 7.10886 26.4504 6.92966 26.6219L5.80796 27.6958L5.62855 27.5084L6.75026 26.4345C6.86597 26.3237 6.93431 26.204 6.95526 26.0756C6.97431 25.9488 6.92956 25.8288 6.82112 25.7156C6.71268 25.6024 6.4925 25.4764 6.16037 25.3377L4.79855 26.6415L4.61914 26.454L6.29957 24.8454Z" fill="#454545"/>
<path d="M10.1864 26.8072L10.4038 26.9489L8.85049 29.3325L8.65879 29.7157L8.43402 29.6042L8.53492 29.3604C8.23681 29.3685 8.00161 29.3165 7.82958 29.2043C7.58612 29.0457 7.45518 28.8321 7.43676 28.564C7.41885 28.295 7.51098 28.0052 7.71335 27.6947C7.91572 27.3841 8.15056 27.1882 8.41807 27.1072C8.68553 27.0263 8.94907 27.0704 9.20894 27.2396C9.36243 27.3397 9.50122 27.4825 9.62535 27.6682L10.1864 26.8072ZM7.95206 27.841C7.79536 28.0815 7.71634 28.3057 7.71526 28.5135C7.71412 28.7212 7.80238 28.8831 7.98014 28.9989C8.15794 29.1148 8.39061 29.1555 8.67851 29.1213L9.48089 27.8899C9.4414 27.8255 9.38034 27.7476 9.29761 27.656C9.21436 27.5653 9.14138 27.4993 9.07856 27.4584C8.88434 27.3319 8.68729 27.3036 8.48718 27.3734C8.28734 27.4445 8.10891 27.6003 7.95206 27.841Z" fill="#454545"/>
<path d="M11.0421 30.7489C10.6869 30.6188 10.4681 30.3997 10.3859 30.092C10.3046 29.7837 10.3637 29.3574 10.563 28.8133C10.7624 28.2693 10.991 27.9052 11.2491 27.7211C11.5076 27.5382 11.827 27.5162 12.2069 27.6555C12.4558 27.7467 12.6987 27.8911 12.9358 28.0887L12.7847 28.3002C12.5403 28.1028 12.3185 27.9675 12.1194 27.8944C11.8314 27.7888 11.588 27.8154 11.3892 27.974C11.1905 28.1326 11.0067 28.4423 10.8377 28.9032C10.6686 29.3648 10.6098 29.7245 10.6616 29.982C10.7136 30.2388 10.8696 30.4149 11.1296 30.5101C11.2865 30.5675 11.4887 30.6 11.7365 30.6073L12.0734 29.688L11.5538 29.4975L11.6363 29.272L12.4081 29.5547L11.9226 30.8797C11.5661 30.877 11.2725 30.8334 11.0421 30.7489Z" fill="#454545"/>
<path d="M13.5395 30.1734C13.6447 29.3803 14.0064 29.0246 14.6248 29.1066C15.2431 29.1886 15.4996 29.6262 15.3944 30.4194C15.2893 31.2118 14.9276 31.5668 14.3094 31.4848C13.6911 31.4029 13.4344 30.9657 13.5395 30.1734ZM14.5913 29.3587C14.158 29.3013 13.8998 29.585 13.8169 30.2102C13.7342 30.8344 13.9095 31.1753 14.3427 31.2327C14.7769 31.2903 15.0354 31.0069 15.1182 30.3827C15.2011 29.7576 15.0254 29.4163 14.5913 29.3587Z" fill="#454545"/>
<path d="M16.699 30.3815C16.6261 29.5847 16.9002 29.1579 17.5213 29.101C18.1424 29.0442 18.4895 29.4142 18.5623 30.2109C18.6351 31.0068 18.361 31.4332 17.7398 31.4902C17.1187 31.5469 16.7717 31.1774 16.699 30.3815ZM17.5445 29.3543C17.1092 29.3941 16.9203 29.728 16.9777 30.3559C17.0351 30.983 17.2814 31.2766 17.7167 31.2368C18.1529 31.1969 18.3422 30.8634 18.2848 30.2363C18.2274 29.6084 17.9806 29.3144 17.5445 29.3543Z" fill="#454545"/>
<path d="M20.6472 27.4119L20.8938 27.3315L21.7766 30.0362L21.9548 30.4257L21.7269 30.531L21.6003 30.2995C21.4196 30.5368 21.2317 30.6874 21.0365 30.7509C20.7603 30.8411 20.5119 30.8092 20.2913 30.6554C20.0705 30.5007 19.9026 30.2472 19.7876 29.8947C19.6726 29.5423 19.6674 29.2366 19.7719 28.9775C19.8765 28.7183 20.0763 28.5407 20.3711 28.4445C20.5453 28.3877 20.7436 28.3692 20.966 28.3888L20.6472 27.4119ZM20.0513 29.8006C20.1405 30.0735 20.2654 30.2756 20.4267 30.4068C20.5878 30.5379 20.7692 30.5706 20.9709 30.5048C21.1727 30.439 21.3503 30.2832 21.5041 30.0377L21.048 28.6404C20.9732 28.6307 20.8741 28.6295 20.751 28.6365C20.6281 28.6444 20.531 28.6599 20.4598 28.6831C20.2395 28.7551 20.0938 28.8908 20.0227 29.0907C19.9527 29.291 19.9623 29.5276 20.0513 29.8006Z" fill="#454545"/>
<path d="M24.0007 29.3152L23.3918 29.6792L21.7451 26.926L22.3923 26.539C22.7003 26.3548 22.9621 26.2732 23.178 26.2938C23.3945 26.3153 23.5788 26.4533 23.731 26.7078C23.922 27.0274 23.8909 27.3281 23.6375 27.6098C23.8474 27.5408 24.0258 27.5289 24.173 27.574C24.3194 27.6195 24.4488 27.7362 24.5611 27.9241C24.7386 28.221 24.7766 28.4754 24.6749 28.687C24.5735 28.8977 24.3487 29.107 24.0007 29.3152ZM24.3176 28.0697C24.1134 27.7282 23.7787 27.6964 23.3136 27.9746L22.8518 28.2509L23.4999 29.3347L23.8773 29.109C24.1383 28.9529 24.3092 28.7946 24.3901 28.634C24.4708 28.4735 24.4467 28.2854 24.3176 28.0697ZM23.0107 26.5519C22.8599 26.5736 22.6948 26.638 22.5157 26.7452L22.1 26.9938L22.7284 28.0446L23.1782 27.7757C23.3545 27.6702 23.4804 27.5407 23.5564 27.3871C23.6312 27.2332 23.6063 27.049 23.4821 26.8345C23.3577 26.6199 23.2006 26.5257 23.0107 26.5519Z" fill="#454545"/>
<path d="M25.3713 26.9102C24.8194 26.3308 24.7693 25.8261 25.2209 25.3959C25.6725 24.9656 26.1742 25.0402 26.7261 25.6195C27.2774 26.1982 27.3273 26.7026 26.8757 27.1329C26.4241 27.5632 25.9226 27.4888 25.3713 26.9102ZM25.3964 25.5799C25.08 25.8815 25.1391 26.2605 25.5741 26.7171C26.0084 27.173 26.3839 27.2502 26.7003 26.9486C27.0174 26.6465 26.9588 26.2675 26.5244 25.8117C26.0895 25.3552 25.7135 25.2779 25.3964 25.5799Z" fill="#454545"/>
<path d="M27.5141 24.5793C26.8477 24.1366 26.6869 23.6555 27.0321 23.136C27.3771 22.6164 27.883 22.578 28.5495 23.0207C29.2153 23.4628 29.3756 23.9438 29.0306 24.4633C28.6856 24.9829 28.1801 25.0216 27.5141 24.5793ZM27.244 23.2767C27.0021 23.6407 27.1438 23.9973 27.6691 24.3461C28.1937 24.6945 28.5769 24.6866 28.8187 24.3225C29.061 23.9577 28.9199 23.6011 28.3953 23.2527C27.8701 22.9038 27.4863 22.9118 27.244 23.2767Z" fill="#454545"/>
<path d="M28.535 20.0378L28.6421 19.764C28.9024 20.1118 29.144 20.4885 29.3669 20.8939C29.7087 20.8106 30.1928 20.7071 30.8194 20.5832L30.7124 20.857C30.222 20.9463 29.7997 21.0356 29.4454 21.125L29.3624 21.4602L30.3292 21.838L30.2346 22.0797L27.2061 20.8963L27.3006 20.6546L29.1433 21.3747L29.2128 21.0601C29.0178 20.7351 28.7919 20.3943 28.535 20.0378Z" fill="#454545"/>
<path d="M0.516602 15.742C0.516602 15.3144 0.863203 14.9677 1.29075 14.9677C1.7183 14.9677 2.06499 15.3143 2.06499 15.742C2.06499 16.1695 1.71839 16.5162 1.29075 16.5161C0.863203 16.5161 0.516523 16.1695 0.516602 15.742Z" fill="#454545"/>
<path d="M29.9355 15.742C29.9355 15.3144 30.2821 14.9677 30.7097 14.9677C31.1373 14.9677 31.4839 15.3143 31.4839 15.742C31.4839 16.1695 31.1374 16.5162 30.7098 16.5161C30.2822 16.5161 29.9355 16.1695 29.9355 15.742Z" fill="#454545"/>
</svg>
