<svg width="206" height="56" viewBox="0 0 206 56" fill="none" xmlns="http://www.w3.org/2000/svg">
<g clip-path="url(#clip0_297_1221)">
<path d="M93.1679 11.1537C103.824 16.1821 100.824 24.8254 96.7439 21.3727C96.3599 17.9432 94.7519 14.2588 92.9039 11.2927L93.1679 11.1537ZM82.1519 10.6439L86.8799 12.2659C86.8079 12.5208 86.5919 12.7062 85.9679 12.7294C84.5279 16.0894 82.1519 20.2836 78.0719 22.9021L77.8799 22.7167C80.2799 19.2872 81.6719 14.1197 82.1519 10.6439ZM87.6239 5.63863L92.1359 6.03256C92.0879 6.38015 91.8479 6.61187 91.2479 6.70456V23.3424C91.2479 25.6596 90.6719 26.9109 86.5679 27.2817C86.4719 26.123 86.3039 25.3352 85.7759 24.8022C85.2719 24.2693 84.6719 23.8985 83.1119 23.6204V23.3424C83.1119 23.3424 86.3999 23.5046 87.0719 23.5046C87.4799 23.5046 87.6239 23.3655 87.6239 23.0875V5.63863ZM105.696 5.9167L105.84 5.80084C112.92 5.54594 110.232 10.9219 107.256 9.04498C107.088 7.88635 106.392 6.65822 105.696 5.9167ZM110.208 9.92553L111.456 8.3498C111.456 8.3498 112.872 9.43891 113.712 10.2036C113.64 10.4585 113.4 10.5744 113.064 10.5744H103.944L103.752 9.92553H110.208ZM109.512 15.904L110.712 14.3978C110.712 14.3978 112.08 15.4406 112.896 16.1821C112.824 16.437 112.584 16.5528 112.248 16.5528H104.832L104.64 15.904H109.512ZM107.832 24.1302H109.488V19.5653H107.832V24.1302ZM112.464 19.936V25.1266C112.44 25.3352 111.024 25.9377 110.016 25.9377H109.488V24.779H107.832V26.2157C107.832 26.4706 106.56 27.0963 105.336 27.0963H104.904V17.781L107.928 18.9164H109.272L110.592 17.5724L113.28 19.5189C113.16 19.6811 112.872 19.8665 112.464 19.936ZM120.792 17.1321V12.6367H116.568V17.1321H120.792ZM125.592 21.5581L125.688 23.9448C126.36 24.2461 126.504 24.5705 126.504 25.0803C126.504 26.0999 125.616 26.5633 122.808 26.5633H121.368C119.28 26.5633 118.968 26.0304 118.968 24.3388V17.781H118.464C118.224 21.952 117.432 25.2193 111.048 27.328L110.808 27.0036C114.864 24.6864 115.368 21.9288 115.464 18.6152C115.032 18.7542 114.528 18.8469 114.024 18.8469H113.616V12.5208C113.352 12.7062 113.064 12.8916 112.776 13.077L112.896 13.1697C112.824 13.4246 112.584 13.5404 112.248 13.5404H104.832L104.64 12.8916H109.512L110.712 11.3854C110.712 11.3854 111.672 12.1037 112.44 12.7757C113.976 10.5512 115.152 7.35339 115.632 5.22153L119.544 6.5887C119.472 6.82042 119.28 7.0058 118.68 7.02898C117.864 8.39615 116.592 9.99504 115.056 11.3622L116.688 11.9879H120.6L121.896 10.6902L123.24 11.6635C122.424 9.62429 120.648 7.30704 119.16 5.70815L119.376 5.56911C128.256 7.44608 126.552 13.3319 123.456 11.8025L124.536 12.5904C124.44 12.7062 124.224 12.8453 123.912 12.9148V17.8041C123.888 17.9664 122.784 18.3603 121.848 18.4761V23.7131C121.848 24.0144 121.92 24.107 122.304 24.107H123.168C123.456 24.107 123.744 24.107 123.912 24.0839C124.104 24.0839 124.272 24.0375 124.392 23.8521C124.608 23.5509 124.968 22.624 125.352 21.5581H125.592ZM141.624 15.093H140.784V18.4066H141.624V15.093ZM140.4 20.0055L143.784 21.2337C143.688 21.4886 143.472 21.6508 142.896 21.6508C142.68 22.0447 142.464 22.4618 142.2 22.8326C146.664 23.4582 144.888 27.2121 142.68 25.8681C142.56 25.1266 142.152 24.3156 141.624 23.6668C140.448 25.1961 138.84 26.5401 136.704 27.328L136.56 27.0731C138.312 25.312 139.272 22.6008 139.656 20.3068C139.32 20.3995 138.936 20.469 138.552 20.469H138.192V18.7774C137.736 19.3567 136.872 19.5189 136.104 18.7774C136.176 17.6188 135.864 16.3211 135.408 15.2784V26.4706C135.408 26.7255 134.112 27.328 132.912 27.328H132.288V18.9859C131.592 19.9824 130.776 20.9324 129.84 21.7898L129.552 21.5349C130.896 18.8933 131.592 15.2784 131.952 11.8488H129.696L129.504 11.2H132.288V5.36056L136.296 5.75449C136.248 6.07891 136.056 6.31063 135.408 6.40332V10.9915L136.488 9.23036C136.488 9.23036 137.856 10.5975 138.576 11.4781C138.504 11.733 138.264 11.8488 137.928 11.8488H135.408V14.6064C136.92 15.2088 137.784 15.9735 138.192 16.715V13.4246L140.856 14.4441H141.432L142.608 13.2855L144.984 15.0003C144.888 15.1161 144.648 15.2784 144.312 15.3247V19.3567C144.312 19.5421 142.944 20.0055 142.104 20.0055H141.624V19.0555H140.784V19.7043C140.784 19.7738 140.64 19.8897 140.4 20.0055ZM144.432 12.1269L145.92 10.1804C145.92 10.1804 147.6 11.5013 148.584 12.405C148.512 12.6599 148.272 12.7757 147.912 12.7757H141.096L140.904 12.1269H144.432ZM148.848 15.093H147.936V18.4066H148.848V15.093ZM147.624 19.9824L151.056 21.2568C150.96 21.5117 150.744 21.6739 150.168 21.6739C149.88 22.2069 149.544 22.763 149.16 23.2728C154.056 23.9912 152.568 28.1159 150.12 26.8877C149.832 25.984 149.16 25.0108 148.368 24.2461C147.216 25.5206 145.704 26.6328 143.832 27.328L143.664 27.0731C145.512 25.312 146.544 22.5545 146.976 20.2604C146.592 20.3763 146.136 20.469 145.68 20.469H145.32V13.4014L148.032 14.4441H148.656L149.856 13.2624L152.304 15.0003C152.208 15.1393 151.992 15.2784 151.656 15.3479V19.3567C151.632 19.5189 150.24 20.0055 149.352 20.0055H148.848V19.0555H147.936V19.7043C147.936 19.7738 147.816 19.8665 147.624 19.9824ZM142.128 5.22153L146.352 6.31063C146.256 6.61187 146.04 6.77408 145.272 6.8436C146.904 8.51201 149.904 9.6938 152.76 9.97187V10.2963C151.584 10.8061 151.152 12.1269 150.984 13.355C148.368 12.1037 146.232 9.85601 145.008 7.07532C143.616 9.80967 141 12.1964 137.256 13.5636L137.112 13.3319C139.728 11.3622 141.552 7.79367 142.128 5.22153ZM168.984 21.2105L169.152 21.0483C178.704 21.1873 177.552 27.4902 174.048 26.2389C172.896 24.4778 170.688 22.4386 168.984 21.2105ZM175.464 9.57794L178.488 12.3123C178.272 12.5208 178.056 12.5904 177.528 12.6135C176.544 13.4246 174.864 14.3978 173.52 14.9308L173.376 14.7917C173.592 13.9575 173.784 12.8221 173.928 11.9184H166.2L168.552 13.5173C168.408 13.7026 168.072 13.8417 167.568 13.6795C166.584 14.0502 165.144 14.4905 163.632 14.8381C164.808 14.8149 166.128 14.8149 167.52 14.7917C168.528 14.2124 169.368 13.6331 169.92 13.1697L173.568 15.1857C173.424 15.4406 173.04 15.6028 172.392 15.4637C170.088 16.5528 165.792 17.8041 161.88 18.592C164.64 18.592 168.408 18.5457 172.368 18.453C171.864 17.8041 171.288 17.2248 170.784 16.7382L170.976 16.5992C178.848 17.0163 176.952 22.6935 173.88 21.0715C173.64 20.3995 173.232 19.7043 172.776 19.0323C171.576 19.2177 170.184 19.4262 168.624 19.6348V23.8521C168.624 25.8682 168.144 27.0268 164.664 27.2585C164.616 26.3316 164.544 25.6596 164.232 25.2425C163.944 24.8717 163.56 24.5241 162.456 24.3388V24.0607C162.456 24.0607 164.352 24.1766 164.808 24.1766C165.12 24.1766 165.216 24.0144 165.216 23.8058V20.0982C163.92 20.2604 162.552 20.4458 161.136 20.608L164.76 22.5313C164.64 22.763 164.4 22.9021 163.848 22.8326C162.024 24.4083 158.88 25.984 155.688 26.7255L155.496 26.4938C157.824 24.9413 160.08 22.4386 161.112 20.608L159.672 20.7934C159.456 21.1873 159.192 21.4422 158.904 21.5349L157.608 18.5225C157.608 18.5225 158.304 18.4761 158.712 18.3603C160.632 17.9895 162.984 17.0858 165.096 16.0662C163.776 16.2979 162.312 16.5528 160.776 16.7846C160.656 16.9236 160.512 17.0163 160.368 17.0858L159.36 14.8613C159.36 14.8613 159.744 14.7917 160.008 14.699C161.76 14.3051 164.04 12.8684 165.216 11.9184H159.312C160.056 17.2944 153.6 15.8113 156.144 12.8221C157.224 12.4281 158.232 11.5476 158.496 9.92553H158.784C158.952 10.4121 159.096 10.8524 159.192 11.2695H165.288V8.99863H158.088L157.896 8.3498H165.288V5.29104L169.584 5.61546C169.536 5.93987 169.368 6.1716 168.696 6.26429V8.3498H171.648L173.424 6.14842C173.424 6.14842 175.44 7.63146 176.64 8.62787C176.592 8.88277 176.304 8.99863 175.944 8.99863H168.696V11.2695H173.736L175.464 9.57794ZM183.528 20.469H183.84C184.92 22.9021 184.896 24.7559 184.152 25.7291C183.6 26.4243 182.136 26.3316 181.656 25.3815C181.248 24.5473 181.68 23.7363 182.424 23.2497C182.928 22.7399 183.696 21.4886 183.528 20.469ZM184.968 20.3068L185.256 20.2373C189.6 23.157 186.72 26.656 185.04 24.5937C185.304 23.1801 185.208 21.5349 184.968 20.3068ZM186.888 20.0287L187.128 19.9128C192.528 21.6971 190.056 25.6828 188.04 23.8753C188.064 22.5777 187.512 21.0483 186.888 20.0287ZM199.776 20.9093L199.896 20.9324C200.472 21.141 200.664 21.3727 200.664 21.7666C200.664 22.6008 199.968 22.9021 197.616 22.9021H196.416C194.76 22.9021 194.544 22.4386 194.544 21.1641V17.2944H193.656L193.464 16.6455H198L198.984 15.371C198.984 15.371 200.088 16.2748 200.76 16.9236C200.688 17.1785 200.472 17.2944 200.16 17.2944H196.752V17.6188V20.7007C196.752 20.9556 196.824 21.0251 197.136 21.0251H197.904H198.6C198.72 21.0251 198.96 21.0019 199.056 21.0019C199.2 20.9788 199.416 20.9556 199.56 20.9093H199.776ZM195.168 13.5868L195.384 13.4941C200.472 14.4673 197.52 17.8273 195.648 16.043C195.72 15.1625 195.48 14.1893 195.168 13.5868ZM198.552 12.7526L199.584 11.4086C199.584 11.4086 200.28 11.9879 200.928 12.5672V9.2767C200.784 9.39256 200.568 9.48525 200.232 9.46208C199.632 10.4121 198.72 11.7098 197.808 12.7526H198.552ZM201.96 5.59229L204.648 7.60829C204.48 7.79367 204.168 7.97904 203.712 8.07173V23.7131C203.712 25.5669 203.304 26.5865 200.208 26.8646C200.16 26.0072 200.04 25.3584 199.704 24.9644C199.344 24.5705 198.888 24.2693 197.784 24.0839V23.7595C197.784 23.7595 199.968 23.8985 200.448 23.8985C200.832 23.8985 200.928 23.7363 200.928 23.435V13.4014H200.808H193.536L193.344 12.7526H197.328C197.616 11.4317 197.88 9.55477 198 8.23394L200.928 8.95229V7.65463H193.248V26.3084C193.248 26.4938 192.432 27.1195 191.112 27.1195H190.632V12.1269C190.488 12.1733 190.296 12.1733 190.056 12.1269C188.76 13.7258 186.264 15.9504 184.008 17.4102C185.064 17.3639 186.36 17.2944 187.728 17.2017C187.584 16.5065 187.392 15.8345 187.176 15.3015L187.44 15.2088C192.504 17.4102 189.792 21.1178 187.896 19.1945C187.92 18.8469 187.896 18.4761 187.872 18.1054C186.672 18.6615 185.112 19.3799 183.384 20.0519C183.192 20.3068 182.952 20.469 182.712 20.5385L181.68 17.4102C181.68 17.4102 182.304 17.2944 182.568 17.109C183.576 16.4138 184.8 14.8844 185.832 13.3087C185.184 13.6099 184.44 13.9575 183.672 14.2819C183.48 14.5832 183.264 14.7686 183 14.8844L181.656 11.8025C181.656 11.8025 182.184 11.6635 182.424 11.5013C183.432 10.4817 184.776 7.14484 185.112 5.36056L188.808 7.07532C188.712 7.28387 188.472 7.44608 188.016 7.42291C186.984 8.83642 185.208 10.6902 183.648 11.872C184.536 11.872 185.592 11.872 186.72 11.8488C187.152 11.0841 187.512 10.3426 187.728 9.74015L190.632 11.6635V5.9167L193.584 7.0058H200.688L201.96 5.59229ZM193.608 8.51201L193.872 8.39615C198.84 10.1573 196.368 13.7258 194.52 12.011C194.568 10.8293 194.088 9.43891 193.608 8.51201Z" fill="#454545"/>
<path d="M85.3272 38.2737V38.9224H80.2725V42.4978H83.9287V43.1466H80.2725V48.2759H78.5303V38.2737H85.3272ZM88.2322 40.8459L89.3494 40.4085H89.8103V48.2759H88.2322V40.8459ZM88.1072 37.5948C88.1072 37.4741 88.1306 37.361 88.1775 37.2554C88.2244 37.1498 88.2895 37.0568 88.3728 36.9763C88.4561 36.8958 88.5525 36.8329 88.6619 36.7878C88.7712 36.7425 88.8884 36.7198 89.0134 36.7198C89.1384 36.7198 89.2556 36.7425 89.365 36.7878C89.4744 36.8329 89.5707 36.8958 89.6541 36.9763C89.7374 37.0568 89.8025 37.1498 89.8494 37.2554C89.8962 37.361 89.9197 37.4741 89.9197 37.5948C89.9197 37.7155 89.8962 37.8287 89.8494 37.9343C89.8025 38.0398 89.7374 38.1329 89.6541 38.2133C89.5707 38.2939 89.4744 38.3567 89.365 38.4019C89.2556 38.4472 89.1384 38.4699 89.0134 38.4699C88.8884 38.4699 88.7712 38.4472 88.6619 38.4019C88.5525 38.3567 88.4561 38.2939 88.3728 38.2133C88.2895 38.1329 88.2244 38.0398 88.1775 37.9343C88.1306 37.8287 88.1072 37.7155 88.1072 37.5948ZM95.1528 40.4085H95.6059V41.9699C96.0903 41.4469 96.5929 41.0571 97.1137 40.8006C97.6346 40.5392 98.1632 40.4085 98.6997 40.4085C98.9809 40.4085 99.2414 40.4688 99.4809 40.5895C99.7257 40.7102 99.9393 40.876 100.122 41.0873C100.304 41.2985 100.447 41.5474 100.551 41.834C100.655 42.1157 100.707 42.4174 100.707 42.7392V48.2759H99.1216V43.0033C99.1216 42.7467 99.0903 42.523 99.0278 42.332C98.9653 42.1358 98.8768 41.9724 98.7622 41.8416C98.6476 41.7108 98.5122 41.6128 98.3559 41.5474C98.2049 41.477 98.0356 41.4418 97.8481 41.4418C97.6815 41.4418 97.5044 41.4695 97.3169 41.5248C97.1294 41.5801 96.9367 41.658 96.7387 41.7586C96.546 41.8542 96.3533 41.9699 96.1606 42.1056C95.9679 42.2414 95.783 42.3922 95.6059 42.5582V48.2759H94.0122V40.8384L95.1528 40.4085ZM110.292 47.5291C110.11 47.6699 109.912 47.7981 109.698 47.9138C109.485 48.0244 109.261 48.1199 109.027 48.2005C108.797 48.2759 108.566 48.3337 108.331 48.374C108.097 48.4192 107.868 48.4418 107.644 48.4418C107.175 48.4418 106.735 48.3362 106.323 48.1251C105.917 47.9138 105.56 47.6296 105.253 47.2726C104.951 46.9156 104.711 46.5008 104.534 46.0281C104.357 45.5503 104.269 45.0474 104.269 44.5194C104.269 43.9964 104.378 43.4885 104.597 42.9956C104.821 42.5029 105.123 42.0654 105.503 41.6832C105.883 41.296 106.326 40.9867 106.831 40.7554C107.342 40.5241 107.886 40.4085 108.464 40.4085C108.855 40.4085 109.193 40.4738 109.48 40.6045C109.771 40.7353 110.042 40.9088 110.292 41.1251V37.0517L111.409 36.6143H111.87V48.2759H110.292V47.5291ZM110.292 43.0108C110.292 42.7091 110.232 42.435 110.112 42.1886C109.998 41.9372 109.847 41.7234 109.659 41.5474C109.472 41.3664 109.258 41.2281 109.019 41.1326C108.784 41.032 108.547 40.9817 108.308 40.9817C107.99 40.9817 107.693 41.0571 107.417 41.208C107.141 41.3588 106.899 41.5726 106.691 41.8492C106.487 42.1207 106.326 42.4475 106.206 42.8298C106.086 43.2069 106.027 43.6243 106.027 44.0819C106.027 44.5748 106.092 45.0348 106.222 45.4623C106.352 45.8897 106.529 46.2644 106.753 46.5862C106.982 46.903 107.248 47.1544 107.55 47.3405C107.857 47.5216 108.185 47.6121 108.534 47.6121C108.701 47.6121 108.868 47.592 109.034 47.5517C109.206 47.5064 109.368 47.4486 109.519 47.3782C109.67 47.3028 109.81 47.2173 109.941 47.1218C110.076 47.0262 110.193 46.9257 110.292 46.8201V43.0108ZM121.838 38.764C121.213 38.764 120.635 38.8721 120.103 39.0884C119.577 39.2996 119.122 39.6063 118.736 40.0086C118.356 40.4059 118.059 40.8887 117.846 41.4569C117.632 42.0201 117.525 42.6512 117.525 43.3502C117.525 44.0542 117.64 44.6904 117.869 45.2586C118.103 45.8218 118.421 46.3021 118.822 46.6994C119.228 47.0966 119.705 47.4034 120.252 47.6196C120.799 47.8309 121.385 47.9364 122.01 47.9364C122.463 47.9364 122.872 47.8786 123.236 47.763C123.601 47.6423 123.929 47.4713 124.221 47.25V43.7425H122.26V43.1466H125.963V47.5442C125.661 47.7 125.356 47.8384 125.049 47.9591C124.741 48.0798 124.408 48.1803 124.049 48.2608C123.695 48.3412 123.304 48.4016 122.877 48.4418C122.45 48.4871 121.965 48.5097 121.424 48.5097C120.851 48.5097 120.307 48.4469 119.791 48.3212C119.275 48.2005 118.796 48.027 118.353 47.8006C117.916 47.5743 117.52 47.3053 117.166 46.9936C116.812 46.6768 116.51 46.3273 116.26 45.945C116.015 45.5629 115.825 45.153 115.689 44.7155C115.554 44.278 115.486 43.8229 115.486 43.3502C115.486 42.8826 115.549 42.4274 115.674 41.9849C115.804 41.5373 115.989 41.1174 116.228 40.7252C116.468 40.3279 116.76 39.9659 117.103 39.639C117.447 39.3121 117.835 39.0306 118.267 38.7942C118.7 38.5578 119.171 38.3743 119.682 38.2436C120.192 38.1128 120.734 38.0474 121.307 38.0474C121.853 38.0474 122.359 38.1204 122.822 38.2662C123.291 38.4069 123.715 38.5956 124.096 38.832C124.481 39.0682 124.822 39.3423 125.119 39.6541C125.416 39.9608 125.671 40.2827 125.885 40.6196L125.135 41.1024C124.697 40.2928 124.21 39.7019 123.674 39.3298C123.142 38.9526 122.531 38.764 121.838 38.764ZM133.587 48.4418C132.972 48.4418 132.407 48.3387 131.891 48.1326C131.376 47.9264 130.93 47.6473 130.555 47.2953C130.18 46.9382 129.886 46.5234 129.673 46.0506C129.464 45.5729 129.36 45.0625 129.36 44.5194C129.36 43.9511 129.464 43.4182 129.673 42.9202C129.886 42.4174 130.18 41.9799 130.555 41.6078C130.93 41.2356 131.376 40.9439 131.891 40.7328C132.407 40.5165 132.972 40.4085 133.587 40.4085C134.196 40.4085 134.756 40.5064 135.266 40.7025C135.782 40.8987 136.227 41.1677 136.602 41.5097C136.977 41.8517 137.269 42.2539 137.477 42.7166C137.691 43.1742 137.798 43.6671 137.798 44.195C137.798 44.7784 137.691 45.329 137.477 45.847C137.269 46.3599 136.977 46.81 136.602 47.1972C136.227 47.5793 135.782 47.8837 135.266 48.1099C134.756 48.3312 134.196 48.4418 133.587 48.4418ZM133.891 47.876C134.204 47.876 134.49 47.7981 134.751 47.6423C135.011 47.4864 135.235 47.2776 135.423 47.0162C135.61 46.7497 135.756 46.4429 135.86 46.0959C135.964 45.7489 136.016 45.3818 136.016 44.9947C136.016 44.4364 135.967 43.9135 135.868 43.4257C135.769 42.9379 135.607 42.5129 135.383 42.1508C135.159 41.7888 134.868 41.5047 134.508 41.2985C134.149 41.0873 133.712 40.9817 133.196 40.9817C132.93 40.9817 132.673 41.0571 132.423 41.208C132.173 41.3538 131.951 41.555 131.758 41.8114C131.571 42.0679 131.42 42.3696 131.305 42.7166C131.191 43.0586 131.133 43.4232 131.133 43.8104C131.133 44.3735 131.193 44.9016 131.313 45.3944C131.438 45.8872 131.618 46.3172 131.852 46.6843C132.092 47.0514 132.381 47.3431 132.719 47.5593C133.063 47.7705 133.454 47.876 133.891 47.876ZM145.023 48.4418C144.408 48.4418 143.843 48.3387 143.327 48.1326C142.812 47.9264 142.367 47.6473 141.992 47.2953C141.617 46.9382 141.322 46.5234 141.109 46.0506C140.9 45.5729 140.796 45.0625 140.796 44.5194C140.796 43.9511 140.9 43.4182 141.109 42.9202C141.322 42.4174 141.617 41.9799 141.992 41.6078C142.367 41.2356 142.812 40.9439 143.327 40.7328C143.843 40.5165 144.408 40.4085 145.023 40.4085C145.632 40.4085 146.192 40.5064 146.702 40.7025C147.218 40.8987 147.663 41.1677 148.038 41.5097C148.413 41.8517 148.705 42.2539 148.913 42.7166C149.127 43.1742 149.234 43.6671 149.234 44.195C149.234 44.7784 149.127 45.329 148.913 45.847C148.705 46.3599 148.413 46.81 148.038 47.1972C147.663 47.5793 147.218 47.8837 146.702 48.1099C146.192 48.3312 145.632 48.4418 145.023 48.4418ZM145.327 47.876C145.64 47.876 145.926 47.7981 146.187 47.6423C146.447 47.4864 146.671 47.2776 146.859 47.0162C147.046 46.7497 147.192 46.4429 147.296 46.0959C147.4 45.7489 147.452 45.3818 147.452 44.9947C147.452 44.4364 147.403 43.9135 147.304 43.4257C147.205 42.9379 147.044 42.5129 146.82 42.1508C146.596 41.7888 146.304 41.5047 145.945 41.2985C145.585 41.0873 145.148 40.9817 144.632 40.9817C144.367 40.9817 144.109 41.0571 143.859 41.208C143.609 41.3538 143.387 41.555 143.195 41.8114C143.007 42.0679 142.856 42.3696 142.742 42.7166C142.627 43.0586 142.57 43.4232 142.57 43.8104C142.57 44.3735 142.63 44.9016 142.749 45.3944C142.874 45.8872 143.054 46.3172 143.288 46.6843C143.528 47.0514 143.817 47.3431 144.156 47.5593C144.499 47.7705 144.89 47.876 145.327 47.876ZM158.256 47.5291C158.074 47.6699 157.876 47.7981 157.662 47.9138C157.449 48.0244 157.225 48.1199 156.99 48.2005C156.761 48.2759 156.529 48.3337 156.295 48.374C156.061 48.4192 155.831 48.4418 155.607 48.4418C155.139 48.4418 154.699 48.3362 154.287 48.1251C153.881 47.9138 153.524 47.6296 153.217 47.2726C152.915 46.9156 152.675 46.5008 152.498 46.0281C152.321 45.5503 152.232 45.0474 152.232 44.5194C152.232 43.9964 152.342 43.4885 152.561 42.9956C152.785 42.5029 153.087 42.0654 153.467 41.6832C153.847 41.296 154.29 40.9867 154.795 40.7554C155.305 40.5241 155.85 40.4085 156.428 40.4085C156.818 40.4085 157.157 40.4738 157.443 40.6045C157.735 40.7353 158.006 40.9088 158.256 41.1251V37.0517L159.373 36.6143H159.834V48.2759H158.256V47.5291ZM158.256 43.0108C158.256 42.7091 158.196 42.435 158.076 42.1886C157.962 41.9372 157.811 41.7234 157.623 41.5474C157.436 41.3664 157.222 41.2281 156.982 41.1326C156.748 41.032 156.511 40.9817 156.272 40.9817C155.954 40.9817 155.657 41.0571 155.381 41.208C155.105 41.3588 154.863 41.5726 154.654 41.8492C154.451 42.1207 154.29 42.4475 154.17 42.8298C154.05 43.2069 153.99 43.6243 153.99 44.0819C153.99 44.5748 154.055 45.0348 154.186 45.4623C154.316 45.8897 154.493 46.2644 154.717 46.5862C154.946 46.903 155.212 47.1544 155.514 47.3405C155.821 47.5216 156.149 47.6121 156.498 47.6121C156.665 47.6121 156.831 47.592 156.998 47.5517C157.17 47.5064 157.331 47.4486 157.482 47.3782C157.634 47.3028 157.774 47.2173 157.904 47.1218C158.04 47.0262 158.157 46.9257 158.256 46.8201V43.0108ZM163.911 38.2737H168.083C168.635 38.2737 169.14 38.334 169.598 38.4547C170.062 38.5704 170.458 38.7364 170.786 38.9526C171.119 39.1688 171.377 39.4278 171.559 39.7295C171.742 40.0312 171.833 40.3632 171.833 40.7252C171.833 41.0018 171.804 41.2483 171.747 41.4644C171.69 41.6807 171.588 41.8818 171.442 42.0679C171.296 42.2489 171.101 42.4224 170.856 42.5884C170.617 42.7493 170.312 42.9152 169.942 43.0862V43.1163C170.312 43.1717 170.645 43.2672 170.942 43.403C171.239 43.5388 171.492 43.7123 171.7 43.9235C171.914 44.1296 172.078 44.3735 172.192 44.6552C172.307 44.9318 172.364 45.236 172.364 45.5679C172.364 45.945 172.278 46.2996 172.106 46.6315C171.94 46.9583 171.697 47.245 171.38 47.4914C171.067 47.7328 170.687 47.9238 170.239 48.0646C169.796 48.2055 169.299 48.2759 168.747 48.2759H163.911V38.2737ZM165.653 42.777H167.872C168.221 42.777 168.531 42.7292 168.802 42.6336C169.072 42.5381 169.302 42.4074 169.489 42.2414C169.677 42.0704 169.817 41.8693 169.911 41.6379C170.01 41.4016 170.059 41.1476 170.059 40.876C170.059 40.5845 170.002 40.3204 169.887 40.084C169.773 39.8427 169.593 39.6365 169.348 39.4655C169.109 39.2945 168.802 39.1638 168.427 39.0733C168.057 38.9828 167.611 38.9375 167.091 38.9375H165.653V42.777ZM165.653 47.5442H167.536C168.041 47.5442 168.479 47.4989 168.848 47.4085C169.223 47.3129 169.531 47.1821 169.77 47.0162C170.015 46.8452 170.195 46.6415 170.309 46.4052C170.429 46.1688 170.489 45.9099 170.489 45.6282C170.489 45.3114 170.437 45.0172 170.333 44.7457C170.229 44.4741 170.057 44.2403 169.817 44.0442C169.583 43.8431 169.273 43.6846 168.887 43.569C168.507 43.4533 168.039 43.3955 167.481 43.3955H165.653V47.5442ZM179.457 48.4418C178.842 48.4418 178.277 48.3387 177.761 48.1326C177.246 47.9264 176.8 47.6473 176.425 47.2953C176.05 46.9382 175.756 46.5234 175.542 46.0506C175.334 45.5729 175.23 45.0625 175.23 44.5194C175.23 43.9511 175.334 43.4182 175.542 42.9202C175.756 42.4174 176.05 41.9799 176.425 41.6078C176.8 41.2356 177.246 40.9439 177.761 40.7328C178.277 40.5165 178.842 40.4085 179.457 40.4085C180.066 40.4085 180.626 40.5064 181.136 40.7025C181.652 40.8987 182.097 41.1677 182.472 41.5097C182.847 41.8517 183.139 42.2539 183.347 42.7166C183.561 43.1742 183.667 43.6671 183.667 44.195C183.667 44.7784 183.561 45.329 183.347 45.847C183.139 46.3599 182.847 46.81 182.472 47.1972C182.097 47.5793 181.652 47.8837 181.136 48.1099C180.626 48.3312 180.066 48.4418 179.457 48.4418ZM179.761 47.876C180.074 47.876 180.36 47.7981 180.621 47.6423C180.881 47.4864 181.105 47.2776 181.292 47.0162C181.48 46.7497 181.626 46.4429 181.73 46.0959C181.834 45.7489 181.886 45.3818 181.886 44.9947C181.886 44.4364 181.837 43.9135 181.738 43.4257C181.639 42.9379 181.477 42.5129 181.253 42.1508C181.029 41.7888 180.738 41.5047 180.378 41.2985C180.019 41.0873 179.582 40.9817 179.066 40.9817C178.8 40.9817 178.542 41.0571 178.292 41.208C178.042 41.3538 177.821 41.555 177.628 41.8114C177.441 42.0679 177.29 42.3696 177.175 42.7166C177.061 43.0586 177.003 43.4232 177.003 43.8104C177.003 44.3735 177.063 44.9016 177.183 45.3944C177.308 45.8872 177.488 46.3172 177.722 46.6843C177.962 47.0514 178.251 47.3431 178.589 47.5593C178.933 47.7705 179.324 47.876 179.761 47.876ZM190.893 48.4418C190.278 48.4418 189.713 48.3387 189.198 48.1326C188.682 47.9264 188.237 47.6473 187.862 47.2953C187.487 46.9382 187.192 46.5234 186.979 46.0506C186.77 45.5729 186.666 45.0625 186.666 44.5194C186.666 43.9511 186.77 43.4182 186.979 42.9202C187.192 42.4174 187.487 41.9799 187.862 41.6078C188.237 41.2356 188.682 40.9439 189.198 40.7328C189.713 40.5165 190.278 40.4085 190.893 40.4085C191.502 40.4085 192.062 40.5064 192.573 40.7025C193.088 40.8987 193.533 41.1677 193.908 41.5097C194.283 41.8517 194.575 42.2539 194.783 42.7166C194.997 43.1742 195.104 43.6671 195.104 44.195C195.104 44.7784 194.997 45.329 194.783 45.847C194.575 46.3599 194.283 46.81 193.908 47.1972C193.533 47.5793 193.088 47.8837 192.573 48.1099C192.062 48.3312 191.502 48.4418 190.893 48.4418ZM191.198 47.876C191.51 47.876 191.796 47.7981 192.057 47.6423C192.317 47.4864 192.541 47.2776 192.729 47.0162C192.916 46.7497 193.062 46.4429 193.166 46.0959C193.27 45.7489 193.323 45.3818 193.323 44.9947C193.323 44.4364 193.273 43.9135 193.174 43.4257C193.075 42.9379 192.914 42.5129 192.69 42.1508C192.466 41.7888 192.174 41.5047 191.815 41.2985C191.455 41.0873 191.018 40.9817 190.502 40.9817C190.237 40.9817 189.979 41.0571 189.729 41.208C189.479 41.3538 189.257 41.555 189.065 41.8114C188.877 42.0679 188.726 42.3696 188.612 42.7166C188.497 43.0586 188.44 43.4232 188.44 43.8104C188.44 44.3735 188.5 44.9016 188.619 45.3944C188.744 45.8872 188.924 46.3172 189.158 46.6843C189.398 47.0514 189.687 47.3431 190.026 47.5593C190.369 47.7705 190.76 47.876 191.198 47.876ZM200.079 43.6671L204.095 40.5517H205.126L201.54 43.3653L205.97 48.2759H203.876L200.079 44.0517V48.2759H198.485V37.0517L199.626 36.6143H200.079V43.6671Z" fill="#454545"/>
<mask id="mask0_297_1221" style="mask-type:luminance" maskUnits="userSpaceOnUse" x="18" y="15" width="23" height="25">
<path d="M40.9306 15.4483H18V39.5862H40.9306V15.4483Z" fill="white"/>
</mask>
<g mask="url(#mask0_297_1221)">
<mask id="mask1_297_1221" style="mask-type:luminance" maskUnits="userSpaceOnUse" x="18" y="15" width="23" height="25">
<path d="M40.9306 15.4483H18V39.5862H40.9306V15.4483Z" fill="white"/>
</mask>
<g mask="url(#mask1_297_1221)">
<path d="M40.922 22.9486C40.9206 22.9426 40.9181 22.937 40.9162 22.9314C40.9112 22.9159 40.9051 22.9014 40.8976 22.8871C40.8945 22.8815 40.8917 22.8764 40.8884 22.8708C40.8773 22.8539 40.8651 22.8376 40.8504 22.8231C40.8495 22.8219 40.849 22.8212 40.8481 22.8204C40.8323 22.805 40.8148 22.7925 40.7959 22.7815C40.7937 22.7798 40.7917 22.778 40.7898 22.7766L27.7082 15.4849C27.621 15.4361 27.5132 15.4361 27.4254 15.4849L18.1771 20.6431C18.1749 20.6445 18.173 20.6466 18.1708 20.648C18.1519 20.6593 18.1341 20.6718 18.1185 20.6869C18.118 20.6877 18.1171 20.6887 18.1166 20.6895C18.1019 20.704 18.0894 20.7204 18.0785 20.7378C18.0752 20.7432 18.0724 20.7483 18.0694 20.7539C18.0619 20.7681 18.0555 20.7826 18.0505 20.7981C18.0485 20.8041 18.0466 20.8094 18.0449 20.8153C18.0397 20.8363 18.036 20.8577 18.036 20.88V23.8881C18.036 23.9852 18.0896 24.075 18.1766 24.124L19.2899 24.7447L18.6649 25.0933L18.661 25.0954C18.6366 25.1091 18.6155 25.1268 18.5969 25.1464C18.5952 25.1483 18.5924 25.1494 18.591 25.1512C18.128 25.6673 17.5324 26.9549 18.591 28.1347C18.593 28.1368 18.5958 28.1382 18.5977 28.1401C18.6158 28.1591 18.6363 28.1768 18.6608 28.1905L19.331 28.5646L18.4883 29.0343C18.4033 29.0815 18.351 29.1691 18.351 29.2636C18.351 29.3579 18.4033 29.4457 18.4883 29.4929L19.3944 29.9979L18.4885 30.5029C18.4035 30.5503 18.3513 30.6375 18.3513 30.7322C18.3513 30.8268 18.4035 30.9143 18.4883 30.9615L19.3949 31.4668L18.4885 31.972C18.4035 32.0195 18.3513 32.1067 18.3513 32.2014C18.3513 32.2961 18.4035 32.3835 18.4885 32.4307L31.261 39.5508C31.3032 39.5741 31.3504 39.5862 31.3976 39.5862C31.4451 39.5862 31.4924 39.5741 31.5349 39.5506L40.5665 34.5162C40.6515 34.469 40.7037 34.3816 40.7037 34.2869C40.7037 34.1922 40.6515 34.1048 40.5665 34.0576L39.6601 33.5523L40.5665 33.047C40.6515 32.9995 40.7037 32.9124 40.7037 32.8177C40.7037 32.723 40.6515 32.6355 40.5665 32.5884L39.6604 32.0834L40.5665 31.5784C40.6515 31.5312 40.7037 31.4437 40.7037 31.3493C40.7037 31.2544 40.6515 31.1669 40.5665 31.12L39.8962 30.7464L40.7392 30.2763C40.8242 30.2288 40.8765 30.1413 40.8765 30.047C40.8765 29.9526 40.8242 29.8648 40.7392 29.8177L40.5592 29.7165L40.7387 29.6168C40.824 29.5693 40.8759 29.4819 40.8762 29.3875C40.8762 29.2925 40.824 29.2051 40.739 29.1579L40.5595 29.0581L40.739 28.9581C40.824 28.9106 40.8762 28.8232 40.8762 28.7288C40.8762 28.6343 40.824 28.5467 40.739 28.4995L40.5592 28.3991L40.7387 28.2991C40.824 28.2516 40.8762 28.1642 40.8762 28.0695C40.8762 27.9749 40.824 27.8874 40.739 27.8405L40.559 27.7402L40.739 27.6396C40.824 27.5922 40.8762 27.505 40.8762 27.4103C40.8762 27.3156 40.824 27.2282 40.739 27.181L39.9392 26.7353L40.7895 26.2613C40.7923 26.2598 40.7945 26.2576 40.797 26.256C40.8056 26.2506 40.8137 26.245 40.8212 26.2391C40.8281 26.2337 40.8354 26.2289 40.8415 26.2227C40.8481 26.2171 40.8542 26.2101 40.8601 26.2037C40.8662 26.197 40.8723 26.1902 40.8776 26.1833C40.8829 26.176 40.887 26.1683 40.8917 26.1608C40.8962 26.1533 40.9006 26.1457 40.9045 26.1382C40.9084 26.1299 40.9112 26.1216 40.9142 26.1125C40.917 26.1044 40.9201 26.0961 40.922 26.0878C40.9242 26.0798 40.9254 26.0712 40.9265 26.0626C40.9281 26.0529 40.9295 26.0439 40.9298 26.0339C40.9298 26.0307 40.9306 26.028 40.9306 26.025V23.0132C40.9309 22.9909 40.9276 22.9692 40.922 22.9486ZM40.0829 23.0132L36.279 25.1343L30.1685 21.78C30.5387 21.8318 30.9987 21.8811 31.4157 21.8811C32.0354 21.8811 32.4054 21.7715 32.5454 21.5456C32.6371 21.3978 32.6251 21.2171 32.5098 21.009C32.3121 20.6496 32.0246 20.4613 31.6562 20.4446L33.5657 19.3802L40.0829 23.0132ZM24.8791 24.2217L29.4382 21.6811L36.0062 25.2864L31.3976 27.856L24.8791 24.2217ZM31.1149 28.3291V30.7064L24.6668 27.1123L24.6779 24.7404L31.1149 28.3291ZM29.3885 21.1787C28.6163 20.1671 27.4985 18.4611 27.7893 17.8901C27.8124 17.845 27.8827 17.7074 28.2185 17.7074L28.2629 17.7083C28.6599 17.7225 28.9515 17.8397 29.1551 18.067C29.6754 18.6486 29.5368 19.8704 29.4143 20.9483C29.4054 21.0259 29.3965 21.1023 29.3885 21.1787ZM31.6807 28.3291L36.2907 25.7585L36.2793 28.1439L31.6807 30.7067V28.3291ZM29.8551 21.4663C29.8771 21.4528 29.8993 21.4394 29.9215 21.4257C30.0354 21.3563 30.1518 21.2857 30.271 21.2157C30.3849 21.146 30.5074 21.0814 30.6224 21.021C31.0362 20.8046 31.3479 20.704 31.6037 20.704C31.8976 20.704 32.109 20.84 32.2701 21.1324C32.3373 21.2538 32.3515 21.3474 32.3123 21.4104C32.2732 21.4729 32.1082 21.6183 31.4157 21.6183C30.8737 21.6186 30.2376 21.5295 29.8551 21.4663ZM27.5671 16.0366L33.2932 19.2287L30.4935 20.7901C30.3738 20.8523 30.2471 20.9197 30.1279 20.9926C30.1274 20.9929 30.1268 20.9931 30.1265 20.9934L29.6529 21.2567C29.6632 21.1648 29.6738 21.0717 29.6843 20.9773C29.8129 19.8458 29.9585 18.5635 29.3607 17.8957C29.109 17.6141 28.7429 17.4628 28.2729 17.4462C27.9043 17.4312 27.6629 17.5441 27.5454 17.7745C27.1743 18.5027 28.3818 20.2811 29.0368 21.1588L23.6677 18.2117L27.5671 16.0366ZM23.3949 18.3638L29.1646 21.5311L24.6074 24.0702L18.8938 20.8845L18.8844 20.8794L23.3949 18.3638ZM18.8946 23.8953L18.6013 23.7306V21.3528L24.406 24.5888L24.3952 26.9613L18.8946 23.8953ZM18.9763 27.7544C18.2294 26.8887 18.6371 26.0326 18.8746 25.6729L26.214 29.7646L31.1685 32.5264C30.9249 32.8992 30.7135 33.4503 30.7887 34.0533C30.789 34.0699 30.791 34.086 30.7946 34.1026C30.8082 34.1927 30.8282 34.2842 30.856 34.3765L18.9763 27.7544ZM39.8804 34.2866L31.3976 39.0152L19.1877 32.2089L19.1738 32.2014L19.9433 31.7723L31.2607 38.0811C31.3032 38.1047 31.3504 38.1168 31.3976 38.1168C31.4451 38.1168 31.4924 38.1047 31.5349 38.0811L39.1112 33.8578L39.8804 34.2866ZM39.8804 32.8174L31.3976 37.5461L19.1877 30.7399L19.1738 30.7322L19.943 30.3033L31.2607 36.6121C31.3032 36.6358 31.3504 36.6478 31.3976 36.6478C31.4451 36.6476 31.4924 36.6358 31.5349 36.6121L39.1118 32.3889L39.8804 32.8174ZM31.3976 36.0768L19.1877 29.2705L19.1741 29.2633L19.8796 28.8695L31.4332 35.3103C31.4524 35.3207 31.4726 35.328 31.4929 35.3342C31.4954 35.3347 31.4976 35.3364 31.5001 35.3372C31.5232 35.3428 31.5468 35.346 31.5701 35.346C31.5712 35.346 31.5724 35.3458 31.5737 35.346C31.5971 35.346 31.6193 35.3423 31.6407 35.3372C31.6737 35.3291 31.7049 35.3154 31.7318 35.2969L39.3473 31.0519L39.8804 31.3491L31.3976 36.0768ZM31.349 34.2333L40.0106 29.2979L40.0523 29.3381L31.3571 34.281C31.3543 34.2703 31.3515 34.26 31.349 34.2333ZM31.6682 34.8324L31.6426 34.7946L40.0112 30.0258L40.0529 30.0657L31.6682 34.8324ZM31.3151 33.6985L31.3235 33.6244L40.0109 28.6896L40.0526 28.7298L31.3151 33.6985ZM31.6812 32.8285L31.7326 32.7455L40.0109 28.0285L40.0531 28.0687L31.6812 32.8285ZM40.0531 27.4095L31.5704 32.1384L19.3602 25.3315L19.3471 25.3243L19.8385 25.0504L31.2562 31.4161C31.2599 31.4179 31.2635 31.4188 31.2671 31.4203C31.2821 31.4279 31.2974 31.4341 31.3137 31.4389C31.3196 31.4408 31.3254 31.4429 31.3315 31.4443C31.3526 31.4493 31.3746 31.4526 31.3974 31.4526C31.4204 31.4526 31.4424 31.4491 31.4637 31.4443C31.4696 31.4429 31.4751 31.4408 31.4812 31.4389C31.4976 31.4338 31.5129 31.4279 31.5279 31.4203C31.5315 31.4185 31.5351 31.4179 31.5387 31.4161L39.3904 27.0402L40.0531 27.4095ZM40.3654 25.8666L36.5518 27.992L36.5632 25.6067L40.3654 23.4863V25.8666Z" fill="#454545"/>
</g>
</g>
<path d="M6.56729 21.2072L6.41924 21.6466L0.986328 19.9387L1.90931 17.2013L2.33124 17.3339L1.55631 19.6322L3.92985 20.3782L4.59459 18.407L5.00994 18.5374L4.34543 20.5087L6.56729 21.2072Z" fill="#454545"/>
<path d="M5.9243 14.0165L5.4126 14.8597L5.03556 14.6467L5.78102 13.418L8.97982 15.2273L9.49153 14.3838L9.86856 14.5971L8.57648 16.7267L8.19945 16.5135L8.7463 15.6123L5.9243 14.0165ZM4.9222 13.235C4.86915 13.3224 4.79319 13.3784 4.69412 13.4036C4.59504 13.4285 4.49619 13.4132 4.39802 13.3576C4.29962 13.302 4.24022 13.2278 4.21959 13.1352C4.19896 13.0426 4.21528 12.9526 4.26811 12.865C4.32116 12.7777 4.39145 12.7219 4.47964 12.6976C4.56965 12.6727 4.66464 12.6884 4.7644 12.7449C4.86552 12.802 4.93013 12.8764 4.95825 12.9684C4.98727 13.059 4.97525 13.1479 4.9222 13.235Z" fill="#454545"/>
<path d="M8.44238 10.1102L8.74913 9.80037L9.01417 10.0204C9.21141 9.44908 9.43836 9.03382 9.69501 8.77463C9.95279 8.51436 10.2475 8.3955 10.5792 8.41804C10.9111 8.44037 11.2367 8.59907 11.5564 8.89416L13.554 10.739L13.233 11.0633L11.2353 9.21835C11.0292 9.02812 10.8111 8.91911 10.5803 8.89153C10.3532 8.86898 10.1432 8.95501 9.9503 9.14961C9.75758 9.34422 9.55059 9.73172 9.32976 10.312L11.7568 12.5533L11.4371 12.8757L8.44238 10.1102Z" fill="#454545"/>
<path d="M14.3645 3.42642L14.7517 3.18256L17.5202 7.28217L18.0079 7.84891L17.6651 8.12604L17.3391 7.79835C17.1387 8.27248 16.885 8.60631 16.5777 8.79982C16.144 9.07279 15.7017 9.13014 15.2508 8.97188C14.7998 8.81362 14.3937 8.46709 14.0328 7.93231C13.6725 7.39884 13.5229 6.89384 13.5834 6.41707C13.644 5.9403 13.9054 5.55634 14.3677 5.26542C14.6413 5.09314 14.9739 4.97428 15.3657 4.90882L14.3645 3.42642ZM14.4448 7.65978C14.7241 8.0735 15.0329 8.35348 15.3707 8.49949C15.7085 8.64549 16.0354 8.61901 16.3517 8.42002C16.6693 8.22017 16.9026 7.88218 17.052 7.40629L15.6219 5.28818C15.4888 5.30636 15.3181 5.34904 15.1095 5.41624C14.9023 5.48279 14.7427 5.55131 14.6304 5.62201C14.2845 5.83982 14.097 6.13009 14.068 6.49302C14.0398 6.85706 14.1654 7.24605 14.4448 7.65978Z" fill="#454545"/>
<path d="M21.5222 6.53879C20.8886 6.76295 20.339 6.71829 19.8735 6.40438C19.4067 6.09113 18.9957 5.46638 18.6404 4.53057C18.2851 3.59477 18.1779 2.86254 18.3189 2.33411C18.4597 1.80567 18.8687 1.42171 19.5457 1.18224C19.9869 1.02616 20.4827 0.94648 21.033 0.943634L21.0715 1.38866C20.5133 1.40092 20.0569 1.46966 19.7024 1.59509C19.1888 1.77677 18.8875 2.08149 18.7986 2.509C18.7105 2.93806 18.8168 3.54923 19.1181 4.34254C19.4192 5.13606 19.7536 5.67281 20.1209 5.95322C20.4864 6.23276 20.9013 6.29034 21.3656 6.12616C21.6433 6.02787 21.9551 5.84618 22.3008 5.58131L21.7004 3.9993L20.7759 4.32634L20.6287 3.93866L22.0047 3.45182L22.8692 5.72951C22.3806 6.12419 21.9317 6.39388 21.5222 6.53879Z" fill="#454545"/>
<path d="M24.5768 3.61818C24.3898 2.25551 24.8471 1.50357 25.9485 1.3626C27.0483 1.22184 27.6917 1.83302 27.8785 3.19591C28.0656 4.56011 27.6094 5.3127 26.5096 5.45323C25.4082 5.59399 24.7641 4.98238 24.5768 3.61818ZM26.0079 1.79625C25.235 1.89519 24.9221 2.48141 25.0695 3.55513C25.2171 4.63038 25.6771 5.11854 26.45 5.01959C27.2213 4.92086 27.5333 4.33398 27.3859 3.25874C27.2385 2.18501 26.7792 1.69752 26.0079 1.79625Z" fill="#454545"/>
<path d="M30.2912 3.26027C30.4216 1.89148 31.0399 1.256 32.146 1.35407C33.2509 1.45214 33.7381 2.18546 33.6077 3.55448C33.4773 4.92482 32.8598 5.56116 31.755 5.46309C30.6486 5.36502 30.1607 4.6306 30.2912 3.26027ZM32.1046 1.78968C31.328 1.72073 30.8887 2.22574 30.7859 3.30427C30.6832 4.38434 31.0199 4.95874 31.7964 5.02748C32.5714 5.09621 33.0101 4.59054 33.113 3.5107C33.2157 2.43217 32.8795 1.85864 32.1046 1.78968Z" fill="#454545"/>
<path d="M39.724 1.53555L40.1634 1.67434L38.5874 6.3258L38.4351 7.04775L37.9968 6.96347L38.0571 6.51275C37.5488 6.65897 37.1203 6.67714 36.7716 6.56704C36.2796 6.41162 35.9563 6.11457 35.8017 5.6761C35.6471 5.23742 35.6727 4.7149 35.8781 4.10832C36.0831 3.50306 36.3971 3.07401 36.8201 2.82096C37.243 2.5679 37.7166 2.52412 38.241 2.68961C38.5514 2.78768 38.8559 2.96368 39.154 3.2176L39.724 1.53555ZM36.3563 4.24755C36.1971 4.71709 36.1645 5.12469 36.2581 5.47033C36.3517 5.8162 36.578 6.04561 36.9367 6.159C37.2969 6.27282 37.7161 6.23693 38.1941 6.0513L39.0082 3.64818C38.9103 3.55932 38.7688 3.45752 38.584 3.34282C38.4006 3.22855 38.2453 3.15128 38.1177 3.111C37.7252 2.9871 37.3733 3.02782 37.0623 3.23314C36.7505 3.44001 36.5152 3.778 36.3563 4.24755Z" fill="#454545"/>
<path d="M41.3422 8.56386L40.2578 7.93649L43.1947 3.20447L44.3467 3.87102C44.8951 4.18844 45.2438 4.51942 45.3928 4.86397C45.5417 5.20852 45.48 5.60036 45.2075 6.03948C44.867 6.58827 44.3691 6.78397 43.7139 6.62701C43.9977 6.89013 44.1662 7.1515 44.2188 7.4109C44.2716 7.6703 44.1977 7.96145 43.9975 8.28432C43.6808 8.7948 43.314 9.05858 42.897 9.07587C42.4789 9.09251 41.9607 8.92177 41.3422 8.56386ZM43.5631 8.03302C43.9284 7.44484 43.6971 6.91115 42.8698 6.43263L42.0452 5.95542L40.8878 7.81981L41.5621 8.20989C42.026 8.47827 42.4182 8.60896 42.7388 8.60195C43.0587 8.59276 43.3337 8.40319 43.5631 8.03302ZM44.847 4.81887C44.6867 4.60829 44.4466 4.4104 44.1267 4.22521L43.3854 3.79616L42.2649 5.60123L43.0659 6.06465C43.3804 6.24656 43.6899 6.3328 43.9939 6.32339C44.2988 6.31245 44.5677 6.1255 44.8003 5.76212C45.032 5.40028 45.0477 5.08572 44.847 4.81887Z" fill="#454545"/>
<path d="M45.9651 9.34337C46.9483 8.34912 47.8416 8.22238 48.6453 8.96314C49.4477 9.70278 49.3575 10.5699 48.374 11.5641C47.3898 12.5595 46.4963 12.6873 45.6941 11.9474C44.8906 11.2067 44.9809 10.3388 45.9651 9.34337ZM48.3325 9.27946C47.7686 8.75956 47.0993 8.89134 46.3246 9.67478C45.549 10.4592 45.4431 11.1115 46.0068 11.6311C46.5695 12.1499 47.2388 12.017 48.0146 11.2327C48.7893 10.4493 48.8952 9.79827 48.3325 9.27946Z" fill="#454545"/>
<path d="M49.8321 13.4204C51.0192 12.6615 51.9192 12.7289 52.5328 13.6234C53.1454 14.5165 52.8581 15.3424 51.671 16.1016C50.4827 16.8614 49.5822 16.7948 48.9696 15.9017C48.3561 15.0075 48.6436 14.1803 49.8321 13.4204ZM52.155 13.8648C51.7245 13.2373 51.0416 13.2224 50.1064 13.8204C49.1698 14.4193 48.9168 15.0324 49.3473 15.6602C49.777 16.2865 50.4601 16.3004 51.3967 15.7014C52.3319 15.1034 52.5847 14.4911 52.155 13.8648Z" fill="#454545"/>
<path d="M55.5629 19.8472L55.7523 20.3174C54.9916 20.1814 54.2205 19.9864 53.4386 19.7323C53.0924 20.2357 52.5825 20.9299 51.9089 21.8149L51.7196 21.3449C52.2562 20.6615 52.702 20.0567 53.0572 19.5307L52.7629 19.009L51.0396 19.6559L50.8721 19.24L56.2708 17.2135L56.4381 17.6297L53.1529 18.8628L53.4399 19.3415C54.0879 19.526 54.7955 19.6946 55.5629 19.8472Z" fill="#454545"/>
<path d="M2.60366 36.403L2.45312 35.9575L7.96787 34.2188L8.90763 36.9978L8.47936 37.1328L7.69014 34.7994L5.28192 35.5585L5.95869 37.559L5.53675 37.6922L4.86021 35.6916L2.60366 36.403Z" fill="#454545"/>
<path d="M8.7837 40.7392L8.26361 39.8824L8.64427 39.6668L9.40197 40.9144L6.15601 42.7521L6.6752 43.6069L6.29227 43.8236L4.98047 41.6637L5.3634 41.447L5.91864 42.3613L8.7837 40.7392ZM9.99643 40.2699C9.9427 40.1813 9.92887 40.0883 9.9554 39.9904C9.9817 39.8928 10.0447 39.8155 10.1445 39.7592C10.2429 39.7036 10.3399 39.6898 10.4358 39.7183C10.5317 39.7468 10.6066 39.8052 10.6605 39.8938C10.7143 39.9826 10.7303 40.0707 10.7088 40.159C10.6873 40.2469 10.6261 40.3196 10.5249 40.3768C10.4227 40.4348 10.3225 40.4536 10.2243 40.4333C10.1261 40.4129 10.0502 40.3583 9.99643 40.2699Z" fill="#454545"/>
<path d="M11.4577 43.4438L11.771 43.7599L11.5266 44.0072C12.1188 44.2259 12.5455 44.467 12.8067 44.7303C13.0687 44.9948 13.1803 45.2881 13.1415 45.6101C13.1025 45.9345 12.9212 46.2462 12.5972 46.5457L10.5687 48.4206L10.2443 48.0935L12.2727 46.2184C12.482 46.0249 12.6056 45.816 12.6434 45.5916C12.6779 45.3703 12.5969 45.1609 12.4008 44.9632C12.2047 44.7655 11.8066 44.5455 11.206 44.3034L8.74339 46.5798L8.41895 46.2525L11.4577 43.4438Z" fill="#454545"/>
<path d="M18.4869 46.8692L18.8801 47.1166L16.0712 51.2783L15.7246 51.9473L15.3181 51.7527L15.5006 51.3269C14.9614 51.3412 14.5361 51.2503 14.225 51.0544C13.7847 50.7775 13.548 50.4047 13.5147 49.9365C13.4823 49.4667 13.6489 48.9608 14.0149 48.4186C14.3808 47.8763 14.8054 47.5344 15.2893 47.393C15.7729 47.2516 16.2494 47.3287 16.7194 47.6242C16.9969 47.7989 17.2479 48.0482 17.4724 48.3724L18.4869 46.8692ZM14.4465 48.674C14.1631 49.0941 14.0203 49.4856 14.0183 49.8482C14.0162 50.211 14.1758 50.4936 14.4973 50.6958C14.8188 50.8981 15.2396 50.9693 15.7602 50.9095L17.2112 48.7594C17.1398 48.6471 17.0293 48.511 16.8797 48.3512C16.7292 48.1926 16.5972 48.0775 16.4836 48.0062C16.1324 47.7853 15.776 47.7359 15.4142 47.8578C15.0528 47.9819 14.7302 48.2538 14.4465 48.674Z" fill="#454545"/>
<path d="M20.0346 53.7513C19.3923 53.524 18.9967 53.1416 18.848 52.6042C18.701 52.0659 18.8078 51.3217 19.1683 50.3716C19.5288 49.4218 19.9423 48.7861 20.4089 48.4648C20.8764 48.1454 21.4539 48.1071 22.1411 48.3503C22.5911 48.5094 23.0303 48.7616 23.459 49.1066L23.1858 49.4759C22.7439 49.1311 22.3429 48.895 21.9828 48.7673C21.462 48.583 21.0218 48.6293 20.6624 48.9062C20.303 49.1832 19.9707 49.7239 19.6651 50.5286C19.3592 51.3346 19.2529 51.9626 19.3465 52.4122C19.4406 52.8605 19.7226 53.1681 20.1929 53.3343C20.4765 53.4345 20.8422 53.4912 21.2904 53.5039L21.8996 51.8989L20.9599 51.5664L21.1093 51.1726L22.5047 51.6662L21.6269 53.9796C20.9821 53.975 20.4513 53.8988 20.0346 53.7513Z" fill="#454545"/>
<path d="M24.5502 52.7465C24.7404 51.3618 25.3945 50.7407 26.5127 50.8839C27.6308 51.027 28.0947 51.791 27.9045 53.1761C27.7145 54.5595 27.0604 55.1794 25.9425 55.0362C24.8243 54.893 24.3602 54.1298 24.5502 52.7465ZM26.4521 51.3241C25.6686 51.2239 25.2018 51.7192 25.0519 52.8107C24.9023 53.9006 25.2192 54.4958 26.0028 54.596C26.7879 54.6966 27.2554 54.2018 27.405 53.1119C27.5549 52.0204 27.2373 51.4246 26.4521 51.3241Z" fill="#454545"/>
<path d="M30.2639 53.1096C30.1322 51.7185 30.6278 50.9734 31.751 50.874C32.8742 50.7748 33.5017 51.4208 33.6334 52.812C33.7652 54.2015 33.2693 54.946 32.1462 55.0454C31.023 55.1446 30.3954 54.4995 30.2639 53.1096ZM31.7929 51.3162C31.0058 51.3858 30.6641 51.9688 30.7679 53.065C30.8718 54.1599 31.317 54.6726 32.1042 54.603C32.893 54.5334 33.2353 53.9512 33.1317 52.8562C33.0279 51.7599 32.5815 51.2466 31.7929 51.3162Z" fill="#454545"/>
<path d="M37.4033 47.925L37.8493 47.7844L39.4456 52.5069L39.7678 53.187L39.3558 53.3708L39.1268 52.9665C38.8001 53.3809 38.4603 53.6438 38.1073 53.7548C37.6078 53.9122 37.1587 53.8566 36.7596 53.588C36.3604 53.3179 36.0568 52.8752 35.8489 52.2599C35.641 51.6446 35.6315 51.1109 35.8206 50.6584C36.0096 50.2059 36.3708 49.8957 36.9041 49.7278C37.219 49.6287 37.5776 49.5963 37.9799 49.6307L37.4033 47.925ZM36.3257 52.0955C36.4869 52.572 36.7129 52.9249 37.0045 53.1539C37.2958 53.3829 37.6239 53.44 37.9887 53.325C38.3535 53.2101 38.6747 52.9383 38.9529 52.5095L38.1281 50.0698C37.9928 50.0529 37.8137 50.0508 37.591 50.063C37.3688 50.0768 37.1931 50.1039 37.0644 50.1444C36.666 50.27 36.4026 50.5072 36.274 50.8561C36.1475 51.2059 36.1647 51.619 36.3257 52.0955Z" fill="#454545"/>
<path d="M43.4683 51.2479L42.3674 51.8836L39.3896 47.0765L40.5599 46.4007C41.1168 46.0792 41.5904 45.9367 41.9808 45.9728C42.3721 46.0103 42.7054 46.2513 42.9806 46.6956C43.3262 47.2536 43.2699 47.7785 42.8115 48.2704C43.1913 48.15 43.5139 48.1292 43.7801 48.2078C44.0446 48.2873 44.2786 48.4911 44.4818 48.8192C44.8028 49.3376 44.8715 49.7817 44.6876 50.1512C44.5042 50.519 44.0977 50.8845 43.4683 51.2479ZM44.0415 49.0734C43.6721 48.4771 43.067 48.4217 42.2259 48.9074L41.3909 49.3897L42.5628 51.2821L43.2452 50.8881C43.7173 50.6155 44.0263 50.3391 44.1725 50.0586C44.3185 49.7784 44.275 49.45 44.0415 49.0734ZM41.6781 46.4233C41.4054 46.4612 41.107 46.5737 40.783 46.7609L40.0312 47.195L41.1678 49.0296L41.981 48.56C42.2998 48.3759 42.5277 48.1498 42.665 47.8816C42.8002 47.6128 42.7553 47.2912 42.5306 46.9167C42.3057 46.5422 42.0216 46.3776 41.6781 46.4233Z" fill="#454545"/>
<path d="M45.9464 47.0489C44.9484 46.0374 44.8577 45.1561 45.6744 44.405C46.491 43.6537 47.3984 43.784 48.3964 44.7953C49.3933 45.8058 49.4835 46.6864 48.6669 47.4377C47.8502 48.189 46.9433 48.0591 45.9464 47.0489ZM45.9918 44.7263C45.4195 45.2528 45.5266 45.9146 46.313 46.7118C47.0984 47.5077 47.7774 47.6426 48.3497 47.1161C48.9231 46.5885 48.8172 45.9269 48.0316 45.1309C47.2451 44.3339 46.5652 44.1991 45.9918 44.7263Z" fill="#454545"/>
<path d="M49.822 42.9793C48.6167 42.2063 48.3261 41.3664 48.9502 40.4593C49.5742 39.5521 50.489 39.4849 51.6942 40.2579C52.8981 41.0299 53.1881 41.8696 52.5642 42.7768C51.9402 43.684 51.0261 43.7516 49.822 42.9793ZM49.3334 40.7049C48.896 41.3406 49.1522 41.9631 50.1022 42.5722C51.0508 43.1804 51.7437 43.1667 52.181 42.531C52.6193 41.894 52.364 41.2714 51.4154 40.663C50.4656 40.0539 49.7716 40.0679 49.3334 40.7049Z" fill="#454545"/>
<path d="M51.6678 35.05L51.8614 34.5719C52.3321 35.1791 52.769 35.8367 53.1721 36.5446C53.7902 36.3993 54.6658 36.2185 55.7987 36.0022L55.6053 36.4803C54.7184 36.6362 53.9548 36.792 53.314 36.9481L53.164 37.5334L54.9122 38.193L54.7412 38.615L49.2646 36.5488L49.4355 36.1268L52.7679 37.3842L52.8935 36.835C52.5409 36.2674 52.1324 35.6723 51.6678 35.05Z" fill="#454545"/>
<path d="M1 27.5173C1 26.7175 1.67154 26.069 2.49992 26.069C3.3283 26.069 4 26.7173 4 27.5173C4 28.3172 3.32846 28.9657 2.49992 28.9655C1.67154 28.9655 0.999847 28.3172 1 27.5173Z" fill="#454545"/>
<path d="M54 27.5173C54 26.7175 54.6716 26.069 55.5 26.069C56.3283 26.069 57 26.7173 57 27.5173C57 28.3172 56.3285 28.9657 55.5001 28.9655C54.6717 28.9655 54 28.3172 54 27.5173Z" fill="#454545"/>
</g>
<defs>
<clipPath id="clip0_297_1221">
<rect width="206" height="56" fill="white"/>
</clipPath>
</defs>
</svg>
