<svg width="29" height="28" viewBox="0 0 29 28" fill="none" xmlns="http://www.w3.org/2000/svg">
<path d="M7.33333 26.8333C6.69167 26.8333 6.14236 26.6048 5.68542 26.1479C5.22847 25.6909 5 25.1416 5 24.5V11.6666C5 11.025 5.22847 10.4757 5.68542 10.0187C6.14236 9.56176 6.69167 9.33329 7.33333 9.33329H10.8333V11.6666H7.33333V24.5H21.3333V11.6666H17.8333V9.33329H21.3333C21.975 9.33329 22.5243 9.56176 22.9812 10.0187C23.4382 10.4757 23.6667 11.025 23.6667 11.6666V24.5C23.6667 25.1416 23.4382 25.6909 22.9812 26.1479C22.5243 26.6048 21.975 26.8333 21.3333 26.8333H7.33333ZM13.1667 18.6666V5.62913L11.3 7.49579L9.66667 5.83329L14.3333 1.16663L19 5.83329L17.3667 7.49579L15.5 5.62913V18.6666H13.1667Z" fill="#5A76BF"/>
</svg>
